  0
SECTION
  2
HEADER
  9
$ACADVER
  1
AC1009
  0
ENDSEC
  0
SECTION
  2
ENTITIES
  0
POLYLINE
  8
FR-4 (LOSSY)
 66
1
 39
0
 10
0.000000
 20
0.000000
 30
0.000000
 70
1
  0
VERTEX
  8
FR-4 (LOSSY)
 39
0
 10
-22.000000
 20
-22.000000
 30
0.000000
 70
0
 42
0
  0
VERTEX
  8
FR-4 (LOSSY)
 39
0
 10
68.000000
 20
-22.000000
 30
0.000000
 70
0
 42
0
  0
VERTEX
  8
FR-4 (LOSSY)
 39
0
 10
68.000000
 20
24.000000
 30
0.000000
 70
0
 42
0
  0
VERTEX
  8
FR-4 (LOSSY)
 39
0
 10
-22.000000
 20
24.000000
 30
0.000000
 70
0
 42
0
  0
SEQEND
  8
FR-4 (LOSSY)
  0
POLYLINE
  8
COPPER (ANNEALED)
 66
1
 39
0
 10
0.000000
 20
0.000000
 30
0.000000
 70
1
  0
VERTEX
  8
COPPER (ANNEALED)
 39
0
 10
-11.500000
 20
-19.500000
 30
0.000000
 70
0
 42
0
  0
VERTEX
  8
COPPER (ANNEALED)
 39
0
 10
27.000000
 20
-19.500000
 30
0.000000
 70
0
 42
0
  0
VERTEX
  8
COPPER (ANNEALED)
 39
0
 10
27.000000
 20
-20.000000
 30
0.000000
 70
0
 42
0
  0
VERTEX
  8
COPPER (ANNEALED)
 39
0
 10
29.000000
 20
-20.000000
 30
0.000000
 70
0
 42
0
  0
VERTEX
  8
COPPER (ANNEALED)
 39
0
 10
29.000000
 20
-19.500000
 30
0.000000
 70
0
 42
0
  0
VERTEX
  8
COPPER (ANNEALED)
 39
0
 10
30.500000
 20
-19.500000
 30
0.000000
 70
0
 42
0
  0
VERTEX
  8
COPPER (ANNEALED)
 39
0
 10
30.500000
 20
-18.000000
 30
0.000000
 70
0
 42
0
  0
VERTEX
  8
COPPER (ANNEALED)
 39
0
 10
50.500000
 20
-18.000000
 30
0.000000
 70
0
 42
0
  0
VERTEX
  8
COPPER (ANNEALED)
 39
0
 10
50.500000
 20
-10.000000
 30
0.000000
 70
0
 42
0
  0
VERTEX
  8
COPPER (ANNEALED)
 39
0
 10
30.000000
 20
-10.000000
 30
0.000000
 70
0
 42
0
  0
VERTEX
  8
COPPER (ANNEALED)
 39
0
 10
30.000000
 20
-19.000000
 30
0.000000
 70
0
 42
0
  0
VERTEX
  8
COPPER (ANNEALED)
 39
0
 10
29.000000
 20
-19.000000
 30
0.000000
 70
0
 42
0
  0
VERTEX
  8
COPPER (ANNEALED)
 39
0
 10
29.000000
 20
-18.500000
 30
0.000000
 70
0
 42
0
  0
VERTEX
  8
COPPER (ANNEALED)
 39
0
 10
27.000000
 20
-18.500000
 30
0.000000
 70
0
 42
0
  0
VERTEX
  8
COPPER (ANNEALED)
 39
0
 10
27.000000
 20
-19.000000
 30
0.000000
 70
0
 42
0
  0
VERTEX
  8
COPPER (ANNEALED)
 39
0
 10
-11.000000
 20
-19.000000
 30
0.000000
 70
0
 42
0
  0
VERTEX
  8
COPPER (ANNEALED)
 39
0
 10
-11.000000
 20
-9.000000
 30
0.000000
 70
0
 42
0
  0
VERTEX
  8
COPPER (ANNEALED)
 39
0
 10
27.000000
 20
-9.000000
 30
0.000000
 70
0
 42
0
  0
VERTEX
  8
COPPER (ANNEALED)
 39
0
 10
27.000000
 20
-17.500000
 30
0.000000
 70
0
 42
0
  0
VERTEX
  8
COPPER (ANNEALED)
 39
0
 10
26.000000
 20
-17.500000
 30
0.000000
 70
0
 42
0
  0
VERTEX
  8
COPPER (ANNEALED)
 39
0
 10
26.000000
 20
-10.000000
 30
0.000000
 70
0
 42
0
  0
VERTEX
  8
COPPER (ANNEALED)
 39
0
 10
5.500000
 20
-10.000000
 30
0.000000
 70
0
 42
0
  0
VERTEX
  8
COPPER (ANNEALED)
 39
0
 10
5.500000
 20
-18.000000
 30
0.000000
 70
0
 42
0
  0
VERTEX
  8
COPPER (ANNEALED)
 39
0
 10
27.500000
 20
-18.000000
 30
0.000000
 70
0
 42
0
  0
VERTEX
  8
COPPER (ANNEALED)
 39
0
 10
27.500000
 20
-8.500000
 30
0.000000
 70
0
 42
0
  0
VERTEX
  8
COPPER (ANNEALED)
 39
0
 10
-11.500000
 20
-8.500000
 30
0.000000
 70
0
 42
0
  0
SEQEND
  8
COPPER (ANNEALED)
  0
POLYLINE
  8
COPPER (ANNEALED)
 66
1
 39
0
 10
0.000000
 20
0.000000
 30
0.000000
 70
1
  0
VERTEX
  8
COPPER (ANNEALED)
 39
0
 10
-19.500000
 20
5.500000
 30
0.000000
 70
0
 42
0
  0
VERTEX
  8
COPPER (ANNEALED)
 39
0
 10
-19.500000
 20
-5.500000
 30
0.000000
 70
0
 42
0
  0
VERTEX
  8
COPPER (ANNEALED)
 39
0
 10
-19.000000
 20
-5.500000
 30
0.000000
 70
0
 42
0
  0
VERTEX
  8
COPPER (ANNEALED)
 39
0
 10
-19.000000
 20
3.000000
 30
0.000000
 70
0
 42
0
  0
VERTEX
  8
COPPER (ANNEALED)
 39
0
 10
-18.000000
 20
3.000000
 30
0.000000
 70
0
 42
0
  0
VERTEX
  8
COPPER (ANNEALED)
 39
0
 10
-18.000000
 20
-4.750000
 30
0.000000
 70
0
 42
0
  0
VERTEX
  8
COPPER (ANNEALED)
 39
0
 10
-17.500000
 20
-4.750000
 30
0.000000
 70
0
 42
0
  0
VERTEX
  8
COPPER (ANNEALED)
 39
0
 10
-17.500000
 20
3.000000
 30
0.000000
 70
0
 42
0
  0
VERTEX
  8
COPPER (ANNEALED)
 39
0
 10
-16.500000
 20
3.000000
 30
0.000000
 70
0
 42
0
  0
VERTEX
  8
COPPER (ANNEALED)
 39
0
 10
-16.500000
 20
-4.750000
 30
0.000000
 70
0
 42
0
  0
VERTEX
  8
COPPER (ANNEALED)
 39
0
 10
-16.000000
 20
-4.750000
 30
0.000000
 70
0
 42
0
  0
VERTEX
  8
COPPER (ANNEALED)
 39
0
 10
-16.000000
 20
3.000000
 30
0.000000
 70
0
 42
0
  0
VERTEX
  8
COPPER (ANNEALED)
 39
0
 10
-15.000000
 20
3.000000
 30
0.000000
 70
0
 42
0
  0
VERTEX
  8
COPPER (ANNEALED)
 39
0
 10
-15.000000
 20
-4.750000
 30
0.000000
 70
0
 42
0
  0
VERTEX
  8
COPPER (ANNEALED)
 39
0
 10
-14.500000
 20
-4.750000
 30
0.000000
 70
0
 42
0
  0
VERTEX
  8
COPPER (ANNEALED)
 39
0
 10
-14.500000
 20
3.000000
 30
0.000000
 70
0
 42
0
  0
VERTEX
  8
COPPER (ANNEALED)
 39
0
 10
-13.500000
 20
3.000000
 30
0.000000
 70
0
 42
0
  0
VERTEX
  8
COPPER (ANNEALED)
 39
0
 10
-13.500000
 20
-4.750000
 30
0.000000
 70
0
 42
0
  0
VERTEX
  8
COPPER (ANNEALED)
 39
0
 10
-13.000000
 20
-4.750000
 30
0.000000
 70
0
 42
0
  0
VERTEX
  8
COPPER (ANNEALED)
 39
0
 10
-13.000000
 20
3.000000
 30
0.000000
 70
0
 42
0
  0
VERTEX
  8
COPPER (ANNEALED)
 39
0
 10
-12.000000
 20
3.000000
 30
0.000000
 70
0
 42
0
  0
VERTEX
  8
COPPER (ANNEALED)
 39
0
 10
-12.000000
 20
-4.750000
 30
0.000000
 70
0
 42
0
  0
VERTEX
  8
COPPER (ANNEALED)
 39
0
 10
-11.500000
 20
-4.750000
 30
0.000000
 70
0
 42
0
  0
VERTEX
  8
COPPER (ANNEALED)
 39
0
 10
-11.500000
 20
3.000000
 30
0.000000
 70
0
 42
0
  0
VERTEX
  8
COPPER (ANNEALED)
 39
0
 10
-10.500000
 20
3.000000
 30
0.000000
 70
0
 42
0
  0
VERTEX
  8
COPPER (ANNEALED)
 39
0
 10
-10.500000
 20
-4.750000
 30
0.000000
 70
0
 42
0
  0
VERTEX
  8
COPPER (ANNEALED)
 39
0
 10
-10.000000
 20
-4.750000
 30
0.000000
 70
0
 42
0
  0
VERTEX
  8
COPPER (ANNEALED)
 39
0
 10
-10.000000
 20
3.000000
 30
0.000000
 70
0
 42
0
  0
VERTEX
  8
COPPER (ANNEALED)
 39
0
 10
-9.000000
 20
3.000000
 30
0.000000
 70
0
 42
0
  0
VERTEX
  8
COPPER (ANNEALED)
 39
0
 10
-9.000000
 20
-4.750000
 30
0.000000
 70
0
 42
0
  0
VERTEX
  8
COPPER (ANNEALED)
 39
0
 10
-8.500000
 20
-4.750000
 30
0.000000
 70
0
 42
0
  0
VERTEX
  8
COPPER (ANNEALED)
 39
0
 10
-8.500000
 20
3.000000
 30
0.000000
 70
0
 42
0
  0
VERTEX
  8
COPPER (ANNEALED)
 39
0
 10
-7.500000
 20
3.000000
 30
0.000000
 70
0
 42
0
  0
VERTEX
  8
COPPER (ANNEALED)
 39
0
 10
-7.500000
 20
-4.750000
 30
0.000000
 70
0
 42
0
  0
VERTEX
  8
COPPER (ANNEALED)
 39
0
 10
-7.000000
 20
-4.750000
 30
0.000000
 70
0
 42
0
  0
VERTEX
  8
COPPER (ANNEALED)
 39
0
 10
-7.000000
 20
3.000000
 30
0.000000
 70
0
 42
0
  0
VERTEX
  8
COPPER (ANNEALED)
 39
0
 10
-6.000000
 20
3.000000
 30
0.000000
 70
0
 42
0
  0
VERTEX
  8
COPPER (ANNEALED)
 39
0
 10
-6.000000
 20
-4.750000
 30
0.000000
 70
0
 42
0
  0
VERTEX
  8
COPPER (ANNEALED)
 39
0
 10
-5.500000
 20
-4.750000
 30
0.000000
 70
0
 42
0
  0
VERTEX
  8
COPPER (ANNEALED)
 39
0
 10
-5.500000
 20
3.000000
 30
0.000000
 70
0
 42
0
  0
VERTEX
  8
COPPER (ANNEALED)
 39
0
 10
-4.500000
 20
3.000000
 30
0.000000
 70
0
 42
0
  0
VERTEX
  8
COPPER (ANNEALED)
 39
0
 10
-4.500000
 20
-4.750000
 30
0.000000
 70
0
 42
0
  0
VERTEX
  8
COPPER (ANNEALED)
 39
0
 10
-4.000000
 20
-4.750000
 30
0.000000
 70
0
 42
0
  0
VERTEX
  8
COPPER (ANNEALED)
 39
0
 10
-4.000000
 20
3.000000
 30
0.000000
 70
0
 42
0
  0
VERTEX
  8
COPPER (ANNEALED)
 39
0
 10
-3.000000
 20
3.000000
 30
0.000000
 70
0
 42
0
  0
VERTEX
  8
COPPER (ANNEALED)
 39
0
 10
-3.000000
 20
-4.750000
 30
0.000000
 70
0
 42
0
  0
VERTEX
  8
COPPER (ANNEALED)
 39
0
 10
-2.500000
 20
-4.750000
 30
0.000000
 70
0
 42
0
  0
VERTEX
  8
COPPER (ANNEALED)
 39
0
 10
-2.500000
 20
3.000000
 30
0.000000
 70
0
 42
0
  0
VERTEX
  8
COPPER (ANNEALED)
 39
0
 10
-1.500000
 20
3.000000
 30
0.000000
 70
0
 42
0
  0
VERTEX
  8
COPPER (ANNEALED)
 39
0
 10
-1.500000
 20
-4.750000
 30
0.000000
 70
0
 42
0
  0
VERTEX
  8
COPPER (ANNEALED)
 39
0
 10
-1.000000
 20
-4.750000
 30
0.000000
 70
0
 42
0
  0
VERTEX
  8
COPPER (ANNEALED)
 39
0
 10
-1.000000
 20
3.500000
 30
0.000000
 70
0
 42
0
  0
VERTEX
  8
COPPER (ANNEALED)
 39
0
 10
-19.000000
 20
3.500000
 30
0.000000
 70
0
 42
0
  0
VERTEX
  8
COPPER (ANNEALED)
 39
0
 10
-19.000000
 20
5.000000
 30
0.000000
 70
0
 42
0
  0
VERTEX
  8
COPPER (ANNEALED)
 39
0
 10
19.000000
 20
5.000000
 30
0.000000
 70
0
 42
0
  0
VERTEX
  8
COPPER (ANNEALED)
 39
0
 10
19.000000
 20
-5.000000
 30
0.000000
 70
0
 42
0
  0
VERTEX
  8
COPPER (ANNEALED)
 39
0
 10
-1.750000
 20
-5.000000
 30
0.000000
 70
0
 42
0
  0
VERTEX
  8
COPPER (ANNEALED)
 39
0
 10
-1.750000
 20
2.750000
 30
0.000000
 70
0
 42
0
  0
VERTEX
  8
COPPER (ANNEALED)
 39
0
 10
-2.250000
 20
2.750000
 30
0.000000
 70
0
 42
0
  0
VERTEX
  8
COPPER (ANNEALED)
 39
0
 10
-2.250000
 20
-5.000000
 30
0.000000
 70
0
 42
0
  0
VERTEX
  8
COPPER (ANNEALED)
 39
0
 10
-3.250000
 20
-5.000000
 30
0.000000
 70
0
 42
0
  0
VERTEX
  8
COPPER (ANNEALED)
 39
0
 10
-3.250000
 20
2.750000
 30
0.000000
 70
0
 42
0
  0
VERTEX
  8
COPPER (ANNEALED)
 39
0
 10
-3.750000
 20
2.750000
 30
0.000000
 70
0
 42
0
  0
VERTEX
  8
COPPER (ANNEALED)
 39
0
 10
-3.750000
 20
-5.000000
 30
0.000000
 70
0
 42
0
  0
VERTEX
  8
COPPER (ANNEALED)
 39
0
 10
-4.750000
 20
-5.000000
 30
0.000000
 70
0
 42
0
  0
VERTEX
  8
COPPER (ANNEALED)
 39
0
 10
-4.750000
 20
2.750000
 30
0.000000
 70
0
 42
0
  0
VERTEX
  8
COPPER (ANNEALED)
 39
0
 10
-5.250000
 20
2.750000
 30
0.000000
 70
0
 42
0
  0
VERTEX
  8
COPPER (ANNEALED)
 39
0
 10
-5.250000
 20
-5.000000
 30
0.000000
 70
0
 42
0
  0
VERTEX
  8
COPPER (ANNEALED)
 39
0
 10
-6.250000
 20
-5.000000
 30
0.000000
 70
0
 42
0
  0
VERTEX
  8
COPPER (ANNEALED)
 39
0
 10
-6.250000
 20
2.750000
 30
0.000000
 70
0
 42
0
  0
VERTEX
  8
COPPER (ANNEALED)
 39
0
 10
-6.750000
 20
2.750000
 30
0.000000
 70
0
 42
0
  0
VERTEX
  8
COPPER (ANNEALED)
 39
0
 10
-6.750000
 20
-5.000000
 30
0.000000
 70
0
 42
0
  0
VERTEX
  8
COPPER (ANNEALED)
 39
0
 10
-7.750000
 20
-5.000000
 30
0.000000
 70
0
 42
0
  0
VERTEX
  8
COPPER (ANNEALED)
 39
0
 10
-7.750000
 20
2.750000
 30
0.000000
 70
0
 42
0
  0
VERTEX
  8
COPPER (ANNEALED)
 39
0
 10
-8.250000
 20
2.750000
 30
0.000000
 70
0
 42
0
  0
VERTEX
  8
COPPER (ANNEALED)
 39
0
 10
-8.250000
 20
-5.000000
 30
0.000000
 70
0
 42
0
  0
VERTEX
  8
COPPER (ANNEALED)
 39
0
 10
-9.250000
 20
-5.000000
 30
0.000000
 70
0
 42
0
  0
VERTEX
  8
COPPER (ANNEALED)
 39
0
 10
-9.250000
 20
2.750000
 30
0.000000
 70
0
 42
0
  0
VERTEX
  8
COPPER (ANNEALED)
 39
0
 10
-9.750000
 20
2.750000
 30
0.000000
 70
0
 42
0
  0
VERTEX
  8
COPPER (ANNEALED)
 39
0
 10
-9.750000
 20
-5.000000
 30
0.000000
 70
0
 42
0
  0
VERTEX
  8
COPPER (ANNEALED)
 39
0
 10
-10.750000
 20
-5.000000
 30
0.000000
 70
0
 42
0
  0
VERTEX
  8
COPPER (ANNEALED)
 39
0
 10
-10.750000
 20
2.750000
 30
0.000000
 70
0
 42
0
  0
VERTEX
  8
COPPER (ANNEALED)
 39
0
 10
-11.250000
 20
2.750000
 30
0.000000
 70
0
 42
0
  0
VERTEX
  8
COPPER (ANNEALED)
 39
0
 10
-11.250000
 20
-5.000000
 30
0.000000
 70
0
 42
0
  0
VERTEX
  8
COPPER (ANNEALED)
 39
0
 10
-12.250000
 20
-5.000000
 30
0.000000
 70
0
 42
0
  0
VERTEX
  8
COPPER (ANNEALED)
 39
0
 10
-12.250000
 20
2.750000
 30
0.000000
 70
0
 42
0
  0
VERTEX
  8
COPPER (ANNEALED)
 39
0
 10
-12.750000
 20
2.750000
 30
0.000000
 70
0
 42
0
  0
VERTEX
  8
COPPER (ANNEALED)
 39
0
 10
-12.750000
 20
-5.000000
 30
0.000000
 70
0
 42
0
  0
VERTEX
  8
COPPER (ANNEALED)
 39
0
 10
-13.750000
 20
-5.000000
 30
0.000000
 70
0
 42
0
  0
VERTEX
  8
COPPER (ANNEALED)
 39
0
 10
-13.750000
 20
2.750000
 30
0.000000
 70
0
 42
0
  0
VERTEX
  8
COPPER (ANNEALED)
 39
0
 10
-14.250000
 20
2.750000
 30
0.000000
 70
0
 42
0
  0
VERTEX
  8
COPPER (ANNEALED)
 39
0
 10
-14.250000
 20
-5.000000
 30
0.000000
 70
0
 42
0
  0
VERTEX
  8
COPPER (ANNEALED)
 39
0
 10
-15.250000
 20
-5.000000
 30
0.000000
 70
0
 42
0
  0
VERTEX
  8
COPPER (ANNEALED)
 39
0
 10
-15.250000
 20
2.750000
 30
0.000000
 70
0
 42
0
  0
VERTEX
  8
COPPER (ANNEALED)
 39
0
 10
-15.750000
 20
2.750000
 30
0.000000
 70
0
 42
0
  0
VERTEX
  8
COPPER (ANNEALED)
 39
0
 10
-15.750000
 20
-5.000000
 30
0.000000
 70
0
 42
0
  0
VERTEX
  8
COPPER (ANNEALED)
 39
0
 10
-16.750000
 20
-5.000000
 30
0.000000
 70
0
 42
0
  0
VERTEX
  8
COPPER (ANNEALED)
 39
0
 10
-16.750000
 20
2.750000
 30
0.000000
 70
0
 42
0
  0
VERTEX
  8
COPPER (ANNEALED)
 39
0
 10
-17.250000
 20
2.750000
 30
0.000000
 70
0
 42
0
  0
VERTEX
  8
COPPER (ANNEALED)
 39
0
 10
-17.250000
 20
-5.000000
 30
0.000000
 70
0
 42
0
  0
VERTEX
  8
COPPER (ANNEALED)
 39
0
 10
-18.250000
 20
-5.000000
 30
0.000000
 70
0
 42
0
  0
VERTEX
  8
COPPER (ANNEALED)
 39
0
 10
-18.250000
 20
2.750000
 30
0.000000
 70
0
 42
0
  0
VERTEX
  8
COPPER (ANNEALED)
 39
0
 10
-18.750000
 20
2.750000
 30
0.000000
 70
0
 42
0
  0
VERTEX
  8
COPPER (ANNEALED)
 39
0
 10
-18.750000
 20
-5.500000
 30
0.000000
 70
0
 42
0
  0
VERTEX
  8
COPPER (ANNEALED)
 39
0
 10
19.500000
 20
-5.500000
 30
0.000000
 70
0
 42
0
  0
VERTEX
  8
COPPER (ANNEALED)
 39
0
 10
19.500000
 20
5.500000
 30
0.000000
 70
0
 42
0
  0
SEQEND
  8
COPPER (ANNEALED)
  0
POLYLINE
  8
COPPER (ANNEALED)
 66
1
 39
0
 10
0.000000
 20
0.000000
 30
0.000000
 70
1
  0
VERTEX
  8
COPPER (ANNEALED)
 39
0
 10
34.000000
 20
20.500000
 30
0.000000
 70
0
 42
0
  0
VERTEX
  8
COPPER (ANNEALED)
 39
0
 10
34.000000
 20
12.000000
 30
0.000000
 70
0
 42
0
  0
VERTEX
  8
COPPER (ANNEALED)
 39
0
 10
35.000000
 20
12.000000
 30
0.000000
 70
0
 42
0
  0
VERTEX
  8
COPPER (ANNEALED)
 39
0
 10
35.000000
 20
20.500000
 30
0.000000
 70
0
 42
0
  0
VERTEX
  8
COPPER (ANNEALED)
 39
0
 10
38.000000
 20
20.500000
 30
0.000000
 70
0
 42
0
  0
VERTEX
  8
COPPER (ANNEALED)
 39
0
 10
38.000000
 20
12.000000
 30
0.000000
 70
0
 42
0
  0
VERTEX
  8
COPPER (ANNEALED)
 39
0
 10
39.000000
 20
12.000000
 30
0.000000
 70
0
 42
0
  0
VERTEX
  8
COPPER (ANNEALED)
 39
0
 10
39.000000
 20
20.500000
 30
0.000000
 70
0
 42
0
  0
VERTEX
  8
COPPER (ANNEALED)
 39
0
 10
42.000000
 20
20.500000
 30
0.000000
 70
0
 42
0
  0
VERTEX
  8
COPPER (ANNEALED)
 39
0
 10
42.000000
 20
12.000000
 30
0.000000
 70
0
 42
0
  0
VERTEX
  8
COPPER (ANNEALED)
 39
0
 10
43.000000
 20
12.000000
 30
0.000000
 70
0
 42
0
  0
VERTEX
  8
COPPER (ANNEALED)
 39
0
 10
43.000000
 20
20.500000
 30
0.000000
 70
0
 42
0
  0
VERTEX
  8
COPPER (ANNEALED)
 39
0
 10
46.000000
 20
20.500000
 30
0.000000
 70
0
 42
0
  0
VERTEX
  8
COPPER (ANNEALED)
 39
0
 10
46.000000
 20
12.000000
 30
0.000000
 70
0
 42
0
  0
VERTEX
  8
COPPER (ANNEALED)
 39
0
 10
47.000000
 20
12.000000
 30
0.000000
 70
0
 42
0
  0
VERTEX
  8
COPPER (ANNEALED)
 39
0
 10
47.000000
 20
20.500000
 30
0.000000
 70
0
 42
0
  0
VERTEX
  8
COPPER (ANNEALED)
 39
0
 10
50.000000
 20
20.500000
 30
0.000000
 70
0
 42
0
  0
VERTEX
  8
COPPER (ANNEALED)
 39
0
 10
50.000000
 20
12.000000
 30
0.000000
 70
0
 42
0
  0
VERTEX
  8
COPPER (ANNEALED)
 39
0
 10
51.000000
 20
12.000000
 30
0.000000
 70
0
 42
0
  0
VERTEX
  8
COPPER (ANNEALED)
 39
0
 10
51.000000
 20
20.500000
 30
0.000000
 70
0
 42
0
  0
VERTEX
  8
COPPER (ANNEALED)
 39
0
 10
54.000000
 20
20.500000
 30
0.000000
 70
0
 42
0
  0
VERTEX
  8
COPPER (ANNEALED)
 39
0
 10
54.000000
 20
12.000000
 30
0.000000
 70
0
 42
0
  0
VERTEX
  8
COPPER (ANNEALED)
 39
0
 10
55.000000
 20
12.000000
 30
0.000000
 70
0
 42
0
  0
VERTEX
  8
COPPER (ANNEALED)
 39
0
 10
55.000000
 20
20.500000
 30
0.000000
 70
0
 42
0
  0
VERTEX
  8
COPPER (ANNEALED)
 39
0
 10
64.500000
 20
20.500000
 30
0.000000
 70
0
 42
0
  0
VERTEX
  8
COPPER (ANNEALED)
 39
0
 10
64.500000
 20
11.500000
 30
0.000000
 70
0
 42
0
  0
VERTEX
  8
COPPER (ANNEALED)
 39
0
 10
53.000000
 20
11.500000
 30
0.000000
 70
0
 42
0
  0
VERTEX
  8
COPPER (ANNEALED)
 39
0
 10
53.000000
 20
20.000000
 30
0.000000
 70
0
 42
0
  0
VERTEX
  8
COPPER (ANNEALED)
 39
0
 10
52.000000
 20
20.000000
 30
0.000000
 70
0
 42
0
  0
VERTEX
  8
COPPER (ANNEALED)
 39
0
 10
52.000000
 20
11.500000
 30
0.000000
 70
0
 42
0
  0
VERTEX
  8
COPPER (ANNEALED)
 39
0
 10
49.000000
 20
11.500000
 30
0.000000
 70
0
 42
0
  0
VERTEX
  8
COPPER (ANNEALED)
 39
0
 10
49.000000
 20
20.000000
 30
0.000000
 70
0
 42
0
  0
VERTEX
  8
COPPER (ANNEALED)
 39
0
 10
48.000000
 20
20.000000
 30
0.000000
 70
0
 42
0
  0
VERTEX
  8
COPPER (ANNEALED)
 39
0
 10
48.000000
 20
11.500000
 30
0.000000
 70
0
 42
0
  0
VERTEX
  8
COPPER (ANNEALED)
 39
0
 10
45.000000
 20
11.500000
 30
0.000000
 70
0
 42
0
  0
VERTEX
  8
COPPER (ANNEALED)
 39
0
 10
45.000000
 20
20.000000
 30
0.000000
 70
0
 42
0
  0
VERTEX
  8
COPPER (ANNEALED)
 39
0
 10
44.000000
 20
20.000000
 30
0.000000
 70
0
 42
0
  0
VERTEX
  8
COPPER (ANNEALED)
 39
0
 10
44.000000
 20
11.500000
 30
0.000000
 70
0
 42
0
  0
VERTEX
  8
COPPER (ANNEALED)
 39
0
 10
41.000000
 20
11.500000
 30
0.000000
 70
0
 42
0
  0
VERTEX
  8
COPPER (ANNEALED)
 39
0
 10
41.000000
 20
20.000000
 30
0.000000
 70
0
 42
0
  0
VERTEX
  8
COPPER (ANNEALED)
 39
0
 10
40.000000
 20
20.000000
 30
0.000000
 70
0
 42
0
  0
VERTEX
  8
COPPER (ANNEALED)
 39
0
 10
40.000000
 20
11.500000
 30
0.000000
 70
0
 42
0
  0
VERTEX
  8
COPPER (ANNEALED)
 39
0
 10
37.000000
 20
11.500000
 30
0.000000
 70
0
 42
0
  0
VERTEX
  8
COPPER (ANNEALED)
 39
0
 10
37.000000
 20
20.000000
 30
0.000000
 70
0
 42
0
  0
VERTEX
  8
COPPER (ANNEALED)
 39
0
 10
36.000000
 20
20.000000
 30
0.000000
 70
0
 42
0
  0
VERTEX
  8
COPPER (ANNEALED)
 39
0
 10
36.000000
 20
11.500000
 30
0.000000
 70
0
 42
0
  0
VERTEX
  8
COPPER (ANNEALED)
 39
0
 10
33.000000
 20
11.500000
 30
0.000000
 70
0
 42
0
  0
VERTEX
  8
COPPER (ANNEALED)
 39
0
 10
33.000000
 20
20.000000
 30
0.000000
 70
0
 42
0
  0
VERTEX
  8
COPPER (ANNEALED)
 39
0
 10
32.000000
 20
20.000000
 30
0.000000
 70
0
 42
0
  0
VERTEX
  8
COPPER (ANNEALED)
 39
0
 10
32.000000
 20
11.500000
 30
0.000000
 70
0
 42
0
  0
VERTEX
  8
COPPER (ANNEALED)
 39
0
 10
29.000000
 20
11.500000
 30
0.000000
 70
0
 42
0
  0
VERTEX
  8
COPPER (ANNEALED)
 39
0
 10
29.000000
 20
20.000000
 30
0.000000
 70
0
 42
0
  0
VERTEX
  8
COPPER (ANNEALED)
 39
0
 10
28.000000
 20
20.000000
 30
0.000000
 70
0
 42
0
  0
VERTEX
  8
COPPER (ANNEALED)
 39
0
 10
28.000000
 20
10.500000
 30
0.000000
 70
0
 42
0
  0
VERTEX
  8
COPPER (ANNEALED)
 39
0
 10
65.500000
 20
10.500000
 30
0.000000
 70
0
 42
0
  0
VERTEX
  8
COPPER (ANNEALED)
 39
0
 10
65.500000
 20
21.500000
 30
0.000000
 70
0
 42
0
  0
VERTEX
  8
COPPER (ANNEALED)
 39
0
 10
26.500000
 20
21.500000
 30
0.000000
 70
0
 42
0
  0
VERTEX
  8
COPPER (ANNEALED)
 39
0
 10
26.500000
 20
10.500000
 30
0.000000
 70
0
 42
0
  0
VERTEX
  8
COPPER (ANNEALED)
 39
0
 10
27.500000
 20
10.500000
 30
0.000000
 70
0
 42
0
  0
VERTEX
  8
COPPER (ANNEALED)
 39
0
 10
27.500000
 20
20.500000
 30
0.000000
 70
0
 42
0
  0
VERTEX
  8
COPPER (ANNEALED)
 39
0
 10
30.000000
 20
20.500000
 30
0.000000
 70
0
 42
0
  0
VERTEX
  8
COPPER (ANNEALED)
 39
0
 10
30.000000
 20
12.000000
 30
0.000000
 70
0
 42
0
  0
VERTEX
  8
COPPER (ANNEALED)
 39
0
 10
31.000000
 20
12.000000
 30
0.000000
 70
0
 42
0
  0
VERTEX
  8
COPPER (ANNEALED)
 39
0
 10
31.000000
 20
20.500000
 30
0.000000
 70
0
 42
0
  0
SEQEND
  8
COPPER (ANNEALED)
  0
POLYLINE
  8
COPPER (ANNEALED)
 66
1
 39
0
 10
0.000000
 20
0.000000
 30
0.000000
 70
1
  0
VERTEX
  8
COPPER (ANNEALED)
 39
0
 10
26.500000
 20
5.500000
 30
0.000000
 70
0
 42
0
  0
VERTEX
  8
COPPER (ANNEALED)
 39
0
 10
26.500000
 20
-5.500000
 30
0.000000
 70
0
 42
0
  0
VERTEX
  8
COPPER (ANNEALED)
 39
0
 10
27.000000
 20
-5.500000
 30
0.000000
 70
0
 42
0
  0
VERTEX
  8
COPPER (ANNEALED)
 39
0
 10
27.000000
 20
3.000000
 30
0.000000
 70
0
 42
0
  0
VERTEX
  8
COPPER (ANNEALED)
 39
0
 10
28.250000
 20
3.000000
 30
0.000000
 70
0
 42
0
  0
VERTEX
  8
COPPER (ANNEALED)
 39
0
 10
28.250000
 20
-4.750000
 30
0.000000
 70
0
 42
0
  0
VERTEX
  8
COPPER (ANNEALED)
 39
0
 10
28.750000
 20
-4.750000
 30
0.000000
 70
0
 42
0
  0
VERTEX
  8
COPPER (ANNEALED)
 39
0
 10
28.750000
 20
3.000000
 30
0.000000
 70
0
 42
0
  0
VERTEX
  8
COPPER (ANNEALED)
 39
0
 10
30.250000
 20
3.000000
 30
0.000000
 70
0
 42
0
  0
VERTEX
  8
COPPER (ANNEALED)
 39
0
 10
30.250000
 20
-4.750000
 30
0.000000
 70
0
 42
0
  0
VERTEX
  8
COPPER (ANNEALED)
 39
0
 10
30.750000
 20
-4.750000
 30
0.000000
 70
0
 42
0
  0
VERTEX
  8
COPPER (ANNEALED)
 39
0
 10
30.750000
 20
3.000000
 30
0.000000
 70
0
 42
0
  0
VERTEX
  8
COPPER (ANNEALED)
 39
0
 10
32.250000
 20
3.000000
 30
0.000000
 70
0
 42
0
  0
VERTEX
  8
COPPER (ANNEALED)
 39
0
 10
32.250000
 20
-4.750000
 30
0.000000
 70
0
 42
0
  0
VERTEX
  8
COPPER (ANNEALED)
 39
0
 10
32.750000
 20
-4.750000
 30
0.000000
 70
0
 42
0
  0
VERTEX
  8
COPPER (ANNEALED)
 39
0
 10
32.750000
 20
3.000000
 30
0.000000
 70
0
 42
0
  0
VERTEX
  8
COPPER (ANNEALED)
 39
0
 10
34.250000
 20
3.000000
 30
0.000000
 70
0
 42
0
  0
VERTEX
  8
COPPER (ANNEALED)
 39
0
 10
34.250000
 20
-4.750000
 30
0.000000
 70
0
 42
0
  0
VERTEX
  8
COPPER (ANNEALED)
 39
0
 10
34.750000
 20
-4.750000
 30
0.000000
 70
0
 42
0
  0
VERTEX
  8
COPPER (ANNEALED)
 39
0
 10
34.750000
 20
3.000000
 30
0.000000
 70
0
 42
0
  0
VERTEX
  8
COPPER (ANNEALED)
 39
0
 10
36.250000
 20
3.000000
 30
0.000000
 70
0
 42
0
  0
VERTEX
  8
COPPER (ANNEALED)
 39
0
 10
36.250000
 20
-4.750000
 30
0.000000
 70
0
 42
0
  0
VERTEX
  8
COPPER (ANNEALED)
 39
0
 10
36.750000
 20
-4.750000
 30
0.000000
 70
0
 42
0
  0
VERTEX
  8
COPPER (ANNEALED)
 39
0
 10
36.750000
 20
3.000000
 30
0.000000
 70
0
 42
0
  0
VERTEX
  8
COPPER (ANNEALED)
 39
0
 10
38.250000
 20
3.000000
 30
0.000000
 70
0
 42
0
  0
VERTEX
  8
COPPER (ANNEALED)
 39
0
 10
38.250000
 20
-4.750000
 30
0.000000
 70
0
 42
0
  0
VERTEX
  8
COPPER (ANNEALED)
 39
0
 10
38.750000
 20
-4.750000
 30
0.000000
 70
0
 42
0
  0
VERTEX
  8
COPPER (ANNEALED)
 39
0
 10
38.750000
 20
3.000000
 30
0.000000
 70
0
 42
0
  0
VERTEX
  8
COPPER (ANNEALED)
 39
0
 10
40.250000
 20
3.000000
 30
0.000000
 70
0
 42
0
  0
VERTEX
  8
COPPER (ANNEALED)
 39
0
 10
40.250000
 20
-4.750000
 30
0.000000
 70
0
 42
0
  0
VERTEX
  8
COPPER (ANNEALED)
 39
0
 10
40.750000
 20
-4.750000
 30
0.000000
 70
0
 42
0
  0
VERTEX
  8
COPPER (ANNEALED)
 39
0
 10
40.750000
 20
3.000000
 30
0.000000
 70
0
 42
0
  0
VERTEX
  8
COPPER (ANNEALED)
 39
0
 10
42.250000
 20
3.000000
 30
0.000000
 70
0
 42
0
  0
VERTEX
  8
COPPER (ANNEALED)
 39
0
 10
42.250000
 20
-4.750000
 30
0.000000
 70
0
 42
0
  0
VERTEX
  8
COPPER (ANNEALED)
 39
0
 10
42.750000
 20
-4.750000
 30
0.000000
 70
0
 42
0
  0
VERTEX
  8
COPPER (ANNEALED)
 39
0
 10
42.750000
 20
3.000000
 30
0.000000
 70
0
 42
0
  0
VERTEX
  8
COPPER (ANNEALED)
 39
0
 10
44.250000
 20
3.000000
 30
0.000000
 70
0
 42
0
  0
VERTEX
  8
COPPER (ANNEALED)
 39
0
 10
44.250000
 20
-4.750000
 30
0.000000
 70
0
 42
0
  0
VERTEX
  8
COPPER (ANNEALED)
 39
0
 10
44.750000
 20
-4.750000
 30
0.000000
 70
0
 42
0
  0
VERTEX
  8
COPPER (ANNEALED)
 39
0
 10
44.750000
 20
3.000000
 30
0.000000
 70
0
 42
0
  0
VERTEX
  8
COPPER (ANNEALED)
 39
0
 10
46.250000
 20
3.000000
 30
0.000000
 70
0
 42
0
  0
VERTEX
  8
COPPER (ANNEALED)
 39
0
 10
46.250000
 20
-4.750000
 30
0.000000
 70
0
 42
0
  0
VERTEX
  8
COPPER (ANNEALED)
 39
0
 10
46.750000
 20
-4.750000
 30
0.000000
 70
0
 42
0
  0
VERTEX
  8
COPPER (ANNEALED)
 39
0
 10
46.750000
 20
3.000000
 30
0.000000
 70
0
 42
0
  0
VERTEX
  8
COPPER (ANNEALED)
 39
0
 10
48.250000
 20
3.000000
 30
0.000000
 70
0
 42
0
  0
VERTEX
  8
COPPER (ANNEALED)
 39
0
 10
48.250000
 20
-4.750000
 30
0.000000
 70
0
 42
0
  0
VERTEX
  8
COPPER (ANNEALED)
 39
0
 10
48.750000
 20
-4.750000
 30
0.000000
 70
0
 42
0
  0
VERTEX
  8
COPPER (ANNEALED)
 39
0
 10
48.750000
 20
3.000000
 30
0.000000
 70
0
 42
0
  0
VERTEX
  8
COPPER (ANNEALED)
 39
0
 10
50.250000
 20
3.000000
 30
0.000000
 70
0
 42
0
  0
VERTEX
  8
COPPER (ANNEALED)
 39
0
 10
50.250000
 20
-4.750000
 30
0.000000
 70
0
 42
0
  0
VERTEX
  8
COPPER (ANNEALED)
 39
0
 10
50.750000
 20
-4.750000
 30
0.000000
 70
0
 42
0
  0
VERTEX
  8
COPPER (ANNEALED)
 39
0
 10
50.750000
 20
3.000000
 30
0.000000
 70
0
 42
0
  0
VERTEX
  8
COPPER (ANNEALED)
 39
0
 10
52.250000
 20
3.000000
 30
0.000000
 70
0
 42
0
  0
VERTEX
  8
COPPER (ANNEALED)
 39
0
 10
52.250000
 20
-4.750000
 30
0.000000
 70
0
 42
0
  0
VERTEX
  8
COPPER (ANNEALED)
 39
0
 10
52.750000
 20
-4.750000
 30
0.000000
 70
0
 42
0
  0
VERTEX
  8
COPPER (ANNEALED)
 39
0
 10
52.750000
 20
3.000000
 30
0.000000
 70
0
 42
0
  0
VERTEX
  8
COPPER (ANNEALED)
 39
0
 10
54.250000
 20
3.000000
 30
0.000000
 70
0
 42
0
  0
VERTEX
  8
COPPER (ANNEALED)
 39
0
 10
54.250000
 20
-4.750000
 30
0.000000
 70
0
 42
0
  0
VERTEX
  8
COPPER (ANNEALED)
 39
0
 10
54.750000
 20
-4.750000
 30
0.000000
 70
0
 42
0
  0
VERTEX
  8
COPPER (ANNEALED)
 39
0
 10
54.750000
 20
3.500000
 30
0.000000
 70
0
 42
0
  0
VERTEX
  8
COPPER (ANNEALED)
 39
0
 10
27.000000
 20
3.500000
 30
0.000000
 70
0
 42
0
  0
VERTEX
  8
COPPER (ANNEALED)
 39
0
 10
27.000000
 20
5.000000
 30
0.000000
 70
0
 42
0
  0
VERTEX
  8
COPPER (ANNEALED)
 39
0
 10
65.000000
 20
5.000000
 30
0.000000
 70
0
 42
0
  0
VERTEX
  8
COPPER (ANNEALED)
 39
0
 10
65.000000
 20
-5.000000
 30
0.000000
 70
0
 42
0
  0
VERTEX
  8
COPPER (ANNEALED)
 39
0
 10
53.750000
 20
-5.000000
 30
0.000000
 70
0
 42
0
  0
VERTEX
  8
COPPER (ANNEALED)
 39
0
 10
53.750000
 20
2.750000
 30
0.000000
 70
0
 42
0
  0
VERTEX
  8
COPPER (ANNEALED)
 39
0
 10
53.250000
 20
2.750000
 30
0.000000
 70
0
 42
0
  0
VERTEX
  8
COPPER (ANNEALED)
 39
0
 10
53.250000
 20
-5.000000
 30
0.000000
 70
0
 42
0
  0
VERTEX
  8
COPPER (ANNEALED)
 39
0
 10
51.750000
 20
-5.000000
 30
0.000000
 70
0
 42
0
  0
VERTEX
  8
COPPER (ANNEALED)
 39
0
 10
51.750000
 20
2.750000
 30
0.000000
 70
0
 42
0
  0
VERTEX
  8
COPPER (ANNEALED)
 39
0
 10
51.250000
 20
2.750000
 30
0.000000
 70
0
 42
0
  0
VERTEX
  8
COPPER (ANNEALED)
 39
0
 10
51.250000
 20
-5.000000
 30
0.000000
 70
0
 42
0
  0
VERTEX
  8
COPPER (ANNEALED)
 39
0
 10
49.750000
 20
-5.000000
 30
0.000000
 70
0
 42
0
  0
VERTEX
  8
COPPER (ANNEALED)
 39
0
 10
49.750000
 20
2.750000
 30
0.000000
 70
0
 42
0
  0
VERTEX
  8
COPPER (ANNEALED)
 39
0
 10
49.250000
 20
2.750000
 30
0.000000
 70
0
 42
0
  0
VERTEX
  8
COPPER (ANNEALED)
 39
0
 10
49.250000
 20
-5.000000
 30
0.000000
 70
0
 42
0
  0
VERTEX
  8
COPPER (ANNEALED)
 39
0
 10
47.750000
 20
-5.000000
 30
0.000000
 70
0
 42
0
  0
VERTEX
  8
COPPER (ANNEALED)
 39
0
 10
47.750000
 20
2.750000
 30
0.000000
 70
0
 42
0
  0
VERTEX
  8
COPPER (ANNEALED)
 39
0
 10
47.250000
 20
2.750000
 30
0.000000
 70
0
 42
0
  0
VERTEX
  8
COPPER (ANNEALED)
 39
0
 10
47.250000
 20
-5.000000
 30
0.000000
 70
0
 42
0
  0
VERTEX
  8
COPPER (ANNEALED)
 39
0
 10
45.750000
 20
-5.000000
 30
0.000000
 70
0
 42
0
  0
VERTEX
  8
COPPER (ANNEALED)
 39
0
 10
45.750000
 20
2.750000
 30
0.000000
 70
0
 42
0
  0
VERTEX
  8
COPPER (ANNEALED)
 39
0
 10
45.250000
 20
2.750000
 30
0.000000
 70
0
 42
0
  0
VERTEX
  8
COPPER (ANNEALED)
 39
0
 10
45.250000
 20
-5.000000
 30
0.000000
 70
0
 42
0
  0
VERTEX
  8
COPPER (ANNEALED)
 39
0
 10
43.750000
 20
-5.000000
 30
0.000000
 70
0
 42
0
  0
VERTEX
  8
COPPER (ANNEALED)
 39
0
 10
43.750000
 20
2.750000
 30
0.000000
 70
0
 42
0
  0
VERTEX
  8
COPPER (ANNEALED)
 39
0
 10
43.250000
 20
2.750000
 30
0.000000
 70
0
 42
0
  0
VERTEX
  8
COPPER (ANNEALED)
 39
0
 10
43.250000
 20
-5.000000
 30
0.000000
 70
0
 42
0
  0
VERTEX
  8
COPPER (ANNEALED)
 39
0
 10
41.750000
 20
-5.000000
 30
0.000000
 70
0
 42
0
  0
VERTEX
  8
COPPER (ANNEALED)
 39
0
 10
41.750000
 20
2.750000
 30
0.000000
 70
0
 42
0
  0
VERTEX
  8
COPPER (ANNEALED)
 39
0
 10
41.250000
 20
2.750000
 30
0.000000
 70
0
 42
0
  0
VERTEX
  8
COPPER (ANNEALED)
 39
0
 10
41.250000
 20
-5.000000
 30
0.000000
 70
0
 42
0
  0
VERTEX
  8
COPPER (ANNEALED)
 39
0
 10
39.750000
 20
-5.000000
 30
0.000000
 70
0
 42
0
  0
VERTEX
  8
COPPER (ANNEALED)
 39
0
 10
39.750000
 20
2.750000
 30
0.000000
 70
0
 42
0
  0
VERTEX
  8
COPPER (ANNEALED)
 39
0
 10
39.250000
 20
2.750000
 30
0.000000
 70
0
 42
0
  0
VERTEX
  8
COPPER (ANNEALED)
 39
0
 10
39.250000
 20
-5.000000
 30
0.000000
 70
0
 42
0
  0
VERTEX
  8
COPPER (ANNEALED)
 39
0
 10
37.750000
 20
-5.000000
 30
0.000000
 70
0
 42
0
  0
VERTEX
  8
COPPER (ANNEALED)
 39
0
 10
37.750000
 20
2.750000
 30
0.000000
 70
0
 42
0
  0
VERTEX
  8
COPPER (ANNEALED)
 39
0
 10
37.250000
 20
2.750000
 30
0.000000
 70
0
 42
0
  0
VERTEX
  8
COPPER (ANNEALED)
 39
0
 10
37.250000
 20
-5.000000
 30
0.000000
 70
0
 42
0
  0
VERTEX
  8
COPPER (ANNEALED)
 39
0
 10
35.750000
 20
-5.000000
 30
0.000000
 70
0
 42
0
  0
VERTEX
  8
COPPER (ANNEALED)
 39
0
 10
35.750000
 20
2.750000
 30
0.000000
 70
0
 42
0
  0
VERTEX
  8
COPPER (ANNEALED)
 39
0
 10
35.250000
 20
2.750000
 30
0.000000
 70
0
 42
0
  0
VERTEX
  8
COPPER (ANNEALED)
 39
0
 10
35.250000
 20
-5.000000
 30
0.000000
 70
0
 42
0
  0
VERTEX
  8
COPPER (ANNEALED)
 39
0
 10
33.750000
 20
-5.000000
 30
0.000000
 70
0
 42
0
  0
VERTEX
  8
COPPER (ANNEALED)
 39
0
 10
33.750000
 20
2.750000
 30
0.000000
 70
0
 42
0
  0
VERTEX
  8
COPPER (ANNEALED)
 39
0
 10
33.250000
 20
2.750000
 30
0.000000
 70
0
 42
0
  0
VERTEX
  8
COPPER (ANNEALED)
 39
0
 10
33.250000
 20
-5.000000
 30
0.000000
 70
0
 42
0
  0
VERTEX
  8
COPPER (ANNEALED)
 39
0
 10
31.750000
 20
-5.000000
 30
0.000000
 70
0
 42
0
  0
VERTEX
  8
COPPER (ANNEALED)
 39
0
 10
31.750000
 20
2.750000
 30
0.000000
 70
0
 42
0
  0
VERTEX
  8
COPPER (ANNEALED)
 39
0
 10
31.250000
 20
2.750000
 30
0.000000
 70
0
 42
0
  0
VERTEX
  8
COPPER (ANNEALED)
 39
0
 10
31.250000
 20
-5.000000
 30
0.000000
 70
0
 42
0
  0
VERTEX
  8
COPPER (ANNEALED)
 39
0
 10
29.750000
 20
-5.000000
 30
0.000000
 70
0
 42
0
  0
VERTEX
  8
COPPER (ANNEALED)
 39
0
 10
29.750000
 20
2.750000
 30
0.000000
 70
0
 42
0
  0
VERTEX
  8
COPPER (ANNEALED)
 39
0
 10
29.250000
 20
2.750000
 30
0.000000
 70
0
 42
0
  0
VERTEX
  8
COPPER (ANNEALED)
 39
0
 10
29.250000
 20
-5.000000
 30
0.000000
 70
0
 42
0
  0
VERTEX
  8
COPPER (ANNEALED)
 39
0
 10
27.750000
 20
-5.000000
 30
0.000000
 70
0
 42
0
  0
VERTEX
  8
COPPER (ANNEALED)
 39
0
 10
27.750000
 20
2.750000
 30
0.000000
 70
0
 42
0
  0
VERTEX
  8
COPPER (ANNEALED)
 39
0
 10
27.250000
 20
2.750000
 30
0.000000
 70
0
 42
0
  0
VERTEX
  8
COPPER (ANNEALED)
 39
0
 10
27.250000
 20
-5.500000
 30
0.000000
 70
0
 42
0
  0
VERTEX
  8
COPPER (ANNEALED)
 39
0
 10
65.500000
 20
-5.500000
 30
0.000000
 70
0
 42
0
  0
VERTEX
  8
COPPER (ANNEALED)
 39
0
 10
65.500000
 20
5.500000
 30
0.000000
 70
0
 42
0
  0
SEQEND
  8
COPPER (ANNEALED)
  0
POLYLINE
  8
COPPER (ANNEALED)
 66
1
 39
0
 10
0.000000
 20
0.000000
 30
0.000000
 70
1
  0
VERTEX
  8
COPPER (ANNEALED)
 39
0
 10
-10.500000
 20
20.500000
 30
0.000000
 70
0
 42
0
  0
VERTEX
  8
COPPER (ANNEALED)
 39
0
 10
-10.500000
 20
12.000000
 30
0.000000
 70
0
 42
0
  0
VERTEX
  8
COPPER (ANNEALED)
 39
0
 10
-9.500000
 20
12.000000
 30
0.000000
 70
0
 42
0
  0
VERTEX
  8
COPPER (ANNEALED)
 39
0
 10
-9.500000
 20
20.500000
 30
0.000000
 70
0
 42
0
  0
VERTEX
  8
COPPER (ANNEALED)
 39
0
 10
-7.500000
 20
20.500000
 30
0.000000
 70
0
 42
0
  0
VERTEX
  8
COPPER (ANNEALED)
 39
0
 10
-7.500000
 20
12.000000
 30
0.000000
 70
0
 42
0
  0
VERTEX
  8
COPPER (ANNEALED)
 39
0
 10
-6.500000
 20
12.000000
 30
0.000000
 70
0
 42
0
  0
VERTEX
  8
COPPER (ANNEALED)
 39
0
 10
-6.500000
 20
20.500000
 30
0.000000
 70
0
 42
0
  0
VERTEX
  8
COPPER (ANNEALED)
 39
0
 10
-4.500000
 20
20.500000
 30
0.000000
 70
0
 42
0
  0
VERTEX
  8
COPPER (ANNEALED)
 39
0
 10
-4.500000
 20
12.000000
 30
0.000000
 70
0
 42
0
  0
VERTEX
  8
COPPER (ANNEALED)
 39
0
 10
-3.500000
 20
12.000000
 30
0.000000
 70
0
 42
0
  0
VERTEX
  8
COPPER (ANNEALED)
 39
0
 10
-3.500000
 20
20.500000
 30
0.000000
 70
0
 42
0
  0
VERTEX
  8
COPPER (ANNEALED)
 39
0
 10
-1.500000
 20
20.500000
 30
0.000000
 70
0
 42
0
  0
VERTEX
  8
COPPER (ANNEALED)
 39
0
 10
-1.500000
 20
12.000000
 30
0.000000
 70
0
 42
0
  0
VERTEX
  8
COPPER (ANNEALED)
 39
0
 10
-0.500000
 20
12.000000
 30
0.000000
 70
0
 42
0
  0
VERTEX
  8
COPPER (ANNEALED)
 39
0
 10
-0.500000
 20
20.500000
 30
0.000000
 70
0
 42
0
  0
VERTEX
  8
COPPER (ANNEALED)
 39
0
 10
1.500000
 20
20.500000
 30
0.000000
 70
0
 42
0
  0
VERTEX
  8
COPPER (ANNEALED)
 39
0
 10
1.500000
 20
12.000000
 30
0.000000
 70
0
 42
0
  0
VERTEX
  8
COPPER (ANNEALED)
 39
0
 10
2.500000
 20
12.000000
 30
0.000000
 70
0
 42
0
  0
VERTEX
  8
COPPER (ANNEALED)
 39
0
 10
2.500000
 20
20.500000
 30
0.000000
 70
0
 42
0
  0
VERTEX
  8
COPPER (ANNEALED)
 39
0
 10
18.500000
 20
20.500000
 30
0.000000
 70
0
 42
0
  0
VERTEX
  8
COPPER (ANNEALED)
 39
0
 10
18.500000
 20
11.500000
 30
0.000000
 70
0
 42
0
  0
VERTEX
  8
COPPER (ANNEALED)
 39
0
 10
1.000000
 20
11.500000
 30
0.000000
 70
0
 42
0
  0
VERTEX
  8
COPPER (ANNEALED)
 39
0
 10
1.000000
 20
20.000000
 30
0.000000
 70
0
 42
0
  0
VERTEX
  8
COPPER (ANNEALED)
 39
0
 10
0.000000
 20
20.000000
 30
0.000000
 70
0
 42
0
  0
VERTEX
  8
COPPER (ANNEALED)
 39
0
 10
0.000000
 20
11.500000
 30
0.000000
 70
0
 42
0
  0
VERTEX
  8
COPPER (ANNEALED)
 39
0
 10
-2.000000
 20
11.500000
 30
0.000000
 70
0
 42
0
  0
VERTEX
  8
COPPER (ANNEALED)
 39
0
 10
-2.000000
 20
20.000000
 30
0.000000
 70
0
 42
0
  0
VERTEX
  8
COPPER (ANNEALED)
 39
0
 10
-3.000000
 20
20.000000
 30
0.000000
 70
0
 42
0
  0
VERTEX
  8
COPPER (ANNEALED)
 39
0
 10
-3.000000
 20
11.500000
 30
0.000000
 70
0
 42
0
  0
VERTEX
  8
COPPER (ANNEALED)
 39
0
 10
-5.000000
 20
11.500000
 30
0.000000
 70
0
 42
0
  0
VERTEX
  8
COPPER (ANNEALED)
 39
0
 10
-5.000000
 20
20.000000
 30
0.000000
 70
0
 42
0
  0
VERTEX
  8
COPPER (ANNEALED)
 39
0
 10
-6.000000
 20
20.000000
 30
0.000000
 70
0
 42
0
  0
VERTEX
  8
COPPER (ANNEALED)
 39
0
 10
-6.000000
 20
11.500000
 30
0.000000
 70
0
 42
0
  0
VERTEX
  8
COPPER (ANNEALED)
 39
0
 10
-8.000000
 20
11.500000
 30
0.000000
 70
0
 42
0
  0
VERTEX
  8
COPPER (ANNEALED)
 39
0
 10
-8.000000
 20
20.000000
 30
0.000000
 70
0
 42
0
  0
VERTEX
  8
COPPER (ANNEALED)
 39
0
 10
-9.000000
 20
20.000000
 30
0.000000
 70
0
 42
0
  0
VERTEX
  8
COPPER (ANNEALED)
 39
0
 10
-9.000000
 20
11.500000
 30
0.000000
 70
0
 42
0
  0
VERTEX
  8
COPPER (ANNEALED)
 39
0
 10
-11.000000
 20
11.500000
 30
0.000000
 70
0
 42
0
  0
VERTEX
  8
COPPER (ANNEALED)
 39
0
 10
-11.000000
 20
20.000000
 30
0.000000
 70
0
 42
0
  0
VERTEX
  8
COPPER (ANNEALED)
 39
0
 10
-12.000000
 20
20.000000
 30
0.000000
 70
0
 42
0
  0
VERTEX
  8
COPPER (ANNEALED)
 39
0
 10
-12.000000
 20
11.500000
 30
0.000000
 70
0
 42
0
  0
VERTEX
  8
COPPER (ANNEALED)
 39
0
 10
-14.000000
 20
11.500000
 30
0.000000
 70
0
 42
0
  0
VERTEX
  8
COPPER (ANNEALED)
 39
0
 10
-14.000000
 20
20.000000
 30
0.000000
 70
0
 42
0
  0
VERTEX
  8
COPPER (ANNEALED)
 39
0
 10
-15.000000
 20
20.000000
 30
0.000000
 70
0
 42
0
  0
VERTEX
  8
COPPER (ANNEALED)
 39
0
 10
-15.000000
 20
11.500000
 30
0.000000
 70
0
 42
0
  0
VERTEX
  8
COPPER (ANNEALED)
 39
0
 10
-17.000000
 20
11.500000
 30
0.000000
 70
0
 42
0
  0
VERTEX
  8
COPPER (ANNEALED)
 39
0
 10
-17.000000
 20
20.000000
 30
0.000000
 70
0
 42
0
  0
VERTEX
  8
COPPER (ANNEALED)
 39
0
 10
-18.000000
 20
20.000000
 30
0.000000
 70
0
 42
0
  0
VERTEX
  8
COPPER (ANNEALED)
 39
0
 10
-18.000000
 20
10.500000
 30
0.000000
 70
0
 42
0
  0
VERTEX
  8
COPPER (ANNEALED)
 39
0
 10
19.500000
 20
10.500000
 30
0.000000
 70
0
 42
0
  0
VERTEX
  8
COPPER (ANNEALED)
 39
0
 10
19.500000
 20
21.500000
 30
0.000000
 70
0
 42
0
  0
VERTEX
  8
COPPER (ANNEALED)
 39
0
 10
-19.500000
 20
21.500000
 30
0.000000
 70
0
 42
0
  0
VERTEX
  8
COPPER (ANNEALED)
 39
0
 10
-19.500000
 20
10.500000
 30
0.000000
 70
0
 42
0
  0
VERTEX
  8
COPPER (ANNEALED)
 39
0
 10
-18.500000
 20
10.500000
 30
0.000000
 70
0
 42
0
  0
VERTEX
  8
COPPER (ANNEALED)
 39
0
 10
-18.500000
 20
20.500000
 30
0.000000
 70
0
 42
0
  0
VERTEX
  8
COPPER (ANNEALED)
 39
0
 10
-16.500000
 20
20.500000
 30
0.000000
 70
0
 42
0
  0
VERTEX
  8
COPPER (ANNEALED)
 39
0
 10
-16.500000
 20
12.000000
 30
0.000000
 70
0
 42
0
  0
VERTEX
  8
COPPER (ANNEALED)
 39
0
 10
-15.500000
 20
12.000000
 30
0.000000
 70
0
 42
0
  0
VERTEX
  8
COPPER (ANNEALED)
 39
0
 10
-15.500000
 20
20.500000
 30
0.000000
 70
0
 42
0
  0
VERTEX
  8
COPPER (ANNEALED)
 39
0
 10
-13.500000
 20
20.500000
 30
0.000000
 70
0
 42
0
  0
VERTEX
  8
COPPER (ANNEALED)
 39
0
 10
-13.500000
 20
12.000000
 30
0.000000
 70
0
 42
0
  0
VERTEX
  8
COPPER (ANNEALED)
 39
0
 10
-12.500000
 20
12.000000
 30
0.000000
 70
0
 42
0
  0
VERTEX
  8
COPPER (ANNEALED)
 39
0
 10
-12.500000
 20
20.500000
 30
0.000000
 70
0
 42
0
  0
SEQEND
  8
COPPER (ANNEALED)
  0
ENDSEC
  0
EOF
