  0
SECTION
  2
HEADER
  9
$ACADVER
  1
AC1009
  0
ENDSEC
  0
SECTION
  2
ENTITIES
  0
POLYLINE
  8
FR-4 (LOSSY)
 66
1
 39
0
 10
0.000000
 20
0.000000
 30
0.000000
 70
1
  0
VERTEX
  8
FR-4 (LOSSY)
 39
0
 10
-20.000000
 20
-6.000000
 30
0.000000
 70
0
 42
0
  0
VERTEX
  8
FR-4 (LOSSY)
 39
0
 10
20.000000
 20
-6.000000
 30
0.000000
 70
0
 42
0
  0
VERTEX
  8
FR-4 (LOSSY)
 39
0
 10
20.000000
 20
6.000000
 30
0.000000
 70
0
 42
0
  0
VERTEX
  8
FR-4 (LOSSY)
 39
0
 10
-20.000000
 20
6.000000
 30
0.000000
 70
0
 42
0
  0
SEQEND
  8
FR-4 (LOSSY)
  0
POLYLINE
  8
COPPER (ANNEALED)
 66
1
 39
0
 10
0.000000
 20
0.000000
 30
0.000000
 70
1
  0
VERTEX
  8
COPPER (ANNEALED)
 39
0
 10
-18.500000
 20
3.000000
 30
0.000000
 70
0
 42
0
  0
VERTEX
  8
COPPER (ANNEALED)
 39
0
 10
-18.500000
 20
-5.000000
 30
0.000000
 70
0
 42
0
  0
VERTEX
  8
COPPER (ANNEALED)
 39
0
 10
19.000000
 20
-5.000000
 30
0.000000
 70
0
 42
0
  0
VERTEX
  8
COPPER (ANNEALED)
 39
0
 10
19.000000
 20
5.000000
 30
0.000000
 70
0
 42
0
  0
VERTEX
  8
COPPER (ANNEALED)
 39
0
 10
-19.000000
 20
5.000000
 30
0.000000
 70
0
 42
0
  0
VERTEX
  8
COPPER (ANNEALED)
 39
0
 10
-19.000000
 20
-5.500000
 30
0.000000
 70
0
 42
0
  0
VERTEX
  8
COPPER (ANNEALED)
 39
0
 10
19.500000
 20
-5.500000
 30
0.000000
 70
0
 42
0
  0
VERTEX
  8
COPPER (ANNEALED)
 39
0
 10
19.500000
 20
5.500000
 30
0.000000
 70
0
 42
0
  0
VERTEX
  8
COPPER (ANNEALED)
 39
0
 10
-19.500000
 20
5.500000
 30
0.000000
 70
0
 42
0
  0
VERTEX
  8
COPPER (ANNEALED)
 39
0
 10
-19.500000
 20
-5.500000
 30
0.000000
 70
0
 42
0
  0
VERTEX
  8
COPPER (ANNEALED)
 39
0
 10
-19.250000
 20
-5.500000
 30
0.000000
 70
0
 42
0
  0
VERTEX
  8
COPPER (ANNEALED)
 39
0
 10
-19.250000
 20
5.250000
 30
0.000000
 70
0
 42
0
  0
VERTEX
  8
COPPER (ANNEALED)
 39
0
 10
19.250000
 20
5.250000
 30
0.000000
 70
0
 42
0
  0
VERTEX
  8
COPPER (ANNEALED)
 39
0
 10
19.250000
 20
-5.250000
 30
0.000000
 70
0
 42
0
  0
VERTEX
  8
COPPER (ANNEALED)
 39
0
 10
-18.750000
 20
-5.250000
 30
0.000000
 70
0
 42
0
  0
VERTEX
  8
COPPER (ANNEALED)
 39
0
 10
-18.750000
 20
3.250000
 30
0.000000
 70
0
 42
0
  0
VERTEX
  8
COPPER (ANNEALED)
 39
0
 10
-18.000000
 20
3.250000
 30
0.000000
 70
0
 42
0
  0
VERTEX
  8
COPPER (ANNEALED)
 39
0
 10
-18.000000
 20
-4.500000
 30
0.000000
 70
0
 42
0
  0
VERTEX
  8
COPPER (ANNEALED)
 39
0
 10
-17.750000
 20
-4.500000
 30
0.000000
 70
0
 42
0
  0
VERTEX
  8
COPPER (ANNEALED)
 39
0
 10
-17.750000
 20
3.250000
 30
0.000000
 70
0
 42
0
  0
VERTEX
  8
COPPER (ANNEALED)
 39
0
 10
-17.000000
 20
3.250000
 30
0.000000
 70
0
 42
0
  0
VERTEX
  8
COPPER (ANNEALED)
 39
0
 10
-17.000000
 20
-4.500000
 30
0.000000
 70
0
 42
0
  0
VERTEX
  8
COPPER (ANNEALED)
 39
0
 10
-16.750000
 20
-4.500000
 30
0.000000
 70
0
 42
0
  0
VERTEX
  8
COPPER (ANNEALED)
 39
0
 10
-16.750000
 20
3.250000
 30
0.000000
 70
0
 42
0
  0
VERTEX
  8
COPPER (ANNEALED)
 39
0
 10
-16.000000
 20
3.250000
 30
0.000000
 70
0
 42
0
  0
VERTEX
  8
COPPER (ANNEALED)
 39
0
 10
-16.000000
 20
-4.500000
 30
0.000000
 70
0
 42
0
  0
VERTEX
  8
COPPER (ANNEALED)
 39
0
 10
-15.750000
 20
-4.500000
 30
0.000000
 70
0
 42
0
  0
VERTEX
  8
COPPER (ANNEALED)
 39
0
 10
-15.750000
 20
3.250000
 30
0.000000
 70
0
 42
0
  0
VERTEX
  8
COPPER (ANNEALED)
 39
0
 10
-15.000000
 20
3.250000
 30
0.000000
 70
0
 42
0
  0
VERTEX
  8
COPPER (ANNEALED)
 39
0
 10
-15.000000
 20
-4.500000
 30
0.000000
 70
0
 42
0
  0
VERTEX
  8
COPPER (ANNEALED)
 39
0
 10
-14.750000
 20
-4.500000
 30
0.000000
 70
0
 42
0
  0
VERTEX
  8
COPPER (ANNEALED)
 39
0
 10
-14.750000
 20
3.250000
 30
0.000000
 70
0
 42
0
  0
VERTEX
  8
COPPER (ANNEALED)
 39
0
 10
-14.000000
 20
3.250000
 30
0.000000
 70
0
 42
0
  0
VERTEX
  8
COPPER (ANNEALED)
 39
0
 10
-14.000000
 20
-4.500000
 30
0.000000
 70
0
 42
0
  0
VERTEX
  8
COPPER (ANNEALED)
 39
0
 10
-13.750000
 20
-4.500000
 30
0.000000
 70
0
 42
0
  0
VERTEX
  8
COPPER (ANNEALED)
 39
0
 10
-13.750000
 20
3.250000
 30
0.000000
 70
0
 42
0
  0
VERTEX
  8
COPPER (ANNEALED)
 39
0
 10
-13.000000
 20
3.250000
 30
0.000000
 70
0
 42
0
  0
VERTEX
  8
COPPER (ANNEALED)
 39
0
 10
-13.000000
 20
-4.500000
 30
0.000000
 70
0
 42
0
  0
VERTEX
  8
COPPER (ANNEALED)
 39
0
 10
-12.750000
 20
-4.500000
 30
0.000000
 70
0
 42
0
  0
VERTEX
  8
COPPER (ANNEALED)
 39
0
 10
-12.750000
 20
3.250000
 30
0.000000
 70
0
 42
0
  0
VERTEX
  8
COPPER (ANNEALED)
 39
0
 10
-12.000000
 20
3.250000
 30
0.000000
 70
0
 42
0
  0
VERTEX
  8
COPPER (ANNEALED)
 39
0
 10
-12.000000
 20
-4.500000
 30
0.000000
 70
0
 42
0
  0
VERTEX
  8
COPPER (ANNEALED)
 39
0
 10
-11.750000
 20
-4.500000
 30
0.000000
 70
0
 42
0
  0
VERTEX
  8
COPPER (ANNEALED)
 39
0
 10
-11.750000
 20
3.250000
 30
0.000000
 70
0
 42
0
  0
VERTEX
  8
COPPER (ANNEALED)
 39
0
 10
-11.000000
 20
3.250000
 30
0.000000
 70
0
 42
0
  0
VERTEX
  8
COPPER (ANNEALED)
 39
0
 10
-11.000000
 20
-4.500000
 30
0.000000
 70
0
 42
0
  0
VERTEX
  8
COPPER (ANNEALED)
 39
0
 10
-10.750000
 20
-4.500000
 30
0.000000
 70
0
 42
0
  0
VERTEX
  8
COPPER (ANNEALED)
 39
0
 10
-10.750000
 20
3.250000
 30
0.000000
 70
0
 42
0
  0
VERTEX
  8
COPPER (ANNEALED)
 39
0
 10
-10.000000
 20
3.250000
 30
0.000000
 70
0
 42
0
  0
VERTEX
  8
COPPER (ANNEALED)
 39
0
 10
-10.000000
 20
-4.500000
 30
0.000000
 70
0
 42
0
  0
VERTEX
  8
COPPER (ANNEALED)
 39
0
 10
-9.750000
 20
-4.500000
 30
0.000000
 70
0
 42
0
  0
VERTEX
  8
COPPER (ANNEALED)
 39
0
 10
-9.750000
 20
3.250000
 30
0.000000
 70
0
 42
0
  0
VERTEX
  8
COPPER (ANNEALED)
 39
0
 10
-9.000000
 20
3.250000
 30
0.000000
 70
0
 42
0
  0
VERTEX
  8
COPPER (ANNEALED)
 39
0
 10
-9.000000
 20
-4.500000
 30
0.000000
 70
0
 42
0
  0
VERTEX
  8
COPPER (ANNEALED)
 39
0
 10
-8.750000
 20
-4.500000
 30
0.000000
 70
0
 42
0
  0
VERTEX
  8
COPPER (ANNEALED)
 39
0
 10
-8.750000
 20
3.250000
 30
0.000000
 70
0
 42
0
  0
VERTEX
  8
COPPER (ANNEALED)
 39
0
 10
-8.000000
 20
3.250000
 30
0.000000
 70
0
 42
0
  0
VERTEX
  8
COPPER (ANNEALED)
 39
0
 10
-8.000000
 20
-4.500000
 30
0.000000
 70
0
 42
0
  0
VERTEX
  8
COPPER (ANNEALED)
 39
0
 10
-7.750000
 20
-4.500000
 30
0.000000
 70
0
 42
0
  0
VERTEX
  8
COPPER (ANNEALED)
 39
0
 10
-7.750000
 20
3.250000
 30
0.000000
 70
0
 42
0
  0
VERTEX
  8
COPPER (ANNEALED)
 39
0
 10
-7.000000
 20
3.250000
 30
0.000000
 70
0
 42
0
  0
VERTEX
  8
COPPER (ANNEALED)
 39
0
 10
-7.000000
 20
-4.500000
 30
0.000000
 70
0
 42
0
  0
VERTEX
  8
COPPER (ANNEALED)
 39
0
 10
-6.750000
 20
-4.500000
 30
0.000000
 70
0
 42
0
  0
VERTEX
  8
COPPER (ANNEALED)
 39
0
 10
-6.750000
 20
3.250000
 30
0.000000
 70
0
 42
0
  0
VERTEX
  8
COPPER (ANNEALED)
 39
0
 10
-6.000000
 20
3.250000
 30
0.000000
 70
0
 42
0
  0
VERTEX
  8
COPPER (ANNEALED)
 39
0
 10
-6.000000
 20
-4.500000
 30
0.000000
 70
0
 42
0
  0
VERTEX
  8
COPPER (ANNEALED)
 39
0
 10
-5.750000
 20
-4.500000
 30
0.000000
 70
0
 42
0
  0
VERTEX
  8
COPPER (ANNEALED)
 39
0
 10
-5.750000
 20
3.250000
 30
0.000000
 70
0
 42
0
  0
VERTEX
  8
COPPER (ANNEALED)
 39
0
 10
-5.000000
 20
3.250000
 30
0.000000
 70
0
 42
0
  0
VERTEX
  8
COPPER (ANNEALED)
 39
0
 10
-5.000000
 20
-4.500000
 30
0.000000
 70
0
 42
0
  0
VERTEX
  8
COPPER (ANNEALED)
 39
0
 10
-4.750000
 20
-4.500000
 30
0.000000
 70
0
 42
0
  0
VERTEX
  8
COPPER (ANNEALED)
 39
0
 10
-4.750000
 20
3.250000
 30
0.000000
 70
0
 42
0
  0
VERTEX
  8
COPPER (ANNEALED)
 39
0
 10
-4.000000
 20
3.250000
 30
0.000000
 70
0
 42
0
  0
VERTEX
  8
COPPER (ANNEALED)
 39
0
 10
-4.000000
 20
-4.500000
 30
0.000000
 70
0
 42
0
  0
VERTEX
  8
COPPER (ANNEALED)
 39
0
 10
-3.750000
 20
-4.500000
 30
0.000000
 70
0
 42
0
  0
VERTEX
  8
COPPER (ANNEALED)
 39
0
 10
-3.750000
 20
3.250000
 30
0.000000
 70
0
 42
0
  0
VERTEX
  8
COPPER (ANNEALED)
 39
0
 10
-3.000000
 20
3.250000
 30
0.000000
 70
0
 42
0
  0
VERTEX
  8
COPPER (ANNEALED)
 39
0
 10
-3.000000
 20
-4.500000
 30
0.000000
 70
0
 42
0
  0
VERTEX
  8
COPPER (ANNEALED)
 39
0
 10
-2.750000
 20
-4.500000
 30
0.000000
 70
0
 42
0
  0
VERTEX
  8
COPPER (ANNEALED)
 39
0
 10
-2.750000
 20
3.250000
 30
0.000000
 70
0
 42
0
  0
VERTEX
  8
COPPER (ANNEALED)
 39
0
 10
-2.000000
 20
3.250000
 30
0.000000
 70
0
 42
0
  0
VERTEX
  8
COPPER (ANNEALED)
 39
0
 10
-2.000000
 20
-4.500000
 30
0.000000
 70
0
 42
0
  0
VERTEX
  8
COPPER (ANNEALED)
 39
0
 10
-1.750000
 20
-4.500000
 30
0.000000
 70
0
 42
0
  0
VERTEX
  8
COPPER (ANNEALED)
 39
0
 10
-1.750000
 20
3.250000
 30
0.000000
 70
0
 42
0
  0
VERTEX
  8
COPPER (ANNEALED)
 39
0
 10
-1.000000
 20
3.250000
 30
0.000000
 70
0
 42
0
  0
VERTEX
  8
COPPER (ANNEALED)
 39
0
 10
-1.000000
 20
-4.500000
 30
0.000000
 70
0
 42
0
  0
VERTEX
  8
COPPER (ANNEALED)
 39
0
 10
-0.750000
 20
-4.500000
 30
0.000000
 70
0
 42
0
  0
VERTEX
  8
COPPER (ANNEALED)
 39
0
 10
-0.750000
 20
3.250000
 30
0.000000
 70
0
 42
0
  0
VERTEX
  8
COPPER (ANNEALED)
 39
0
 10
0.000000
 20
3.250000
 30
0.000000
 70
0
 42
0
  0
VERTEX
  8
COPPER (ANNEALED)
 39
0
 10
0.000000
 20
-4.500000
 30
0.000000
 70
0
 42
0
  0
VERTEX
  8
COPPER (ANNEALED)
 39
0
 10
0.250000
 20
-4.500000
 30
0.000000
 70
0
 42
0
  0
VERTEX
  8
COPPER (ANNEALED)
 39
0
 10
0.250000
 20
3.250000
 30
0.000000
 70
0
 42
0
  0
VERTEX
  8
COPPER (ANNEALED)
 39
0
 10
1.000000
 20
3.250000
 30
0.000000
 70
0
 42
0
  0
VERTEX
  8
COPPER (ANNEALED)
 39
0
 10
1.000000
 20
-4.500000
 30
0.000000
 70
0
 42
0
  0
VERTEX
  8
COPPER (ANNEALED)
 39
0
 10
1.250000
 20
-4.500000
 30
0.000000
 70
0
 42
0
  0
VERTEX
  8
COPPER (ANNEALED)
 39
0
 10
1.250000
 20
3.250000
 30
0.000000
 70
0
 42
0
  0
VERTEX
  8
COPPER (ANNEALED)
 39
0
 10
2.000000
 20
3.250000
 30
0.000000
 70
0
 42
0
  0
VERTEX
  8
COPPER (ANNEALED)
 39
0
 10
2.000000
 20
-4.500000
 30
0.000000
 70
0
 42
0
  0
VERTEX
  8
COPPER (ANNEALED)
 39
0
 10
2.250000
 20
-4.500000
 30
0.000000
 70
0
 42
0
  0
VERTEX
  8
COPPER (ANNEALED)
 39
0
 10
2.250000
 20
3.250000
 30
0.000000
 70
0
 42
0
  0
VERTEX
  8
COPPER (ANNEALED)
 39
0
 10
3.000000
 20
3.250000
 30
0.000000
 70
0
 42
0
  0
VERTEX
  8
COPPER (ANNEALED)
 39
0
 10
3.000000
 20
-4.500000
 30
0.000000
 70
0
 42
0
  0
VERTEX
  8
COPPER (ANNEALED)
 39
0
 10
3.250000
 20
-4.500000
 30
0.000000
 70
0
 42
0
  0
VERTEX
  8
COPPER (ANNEALED)
 39
0
 10
3.250000
 20
3.250000
 30
0.000000
 70
0
 42
0
  0
VERTEX
  8
COPPER (ANNEALED)
 39
0
 10
4.000000
 20
3.250000
 30
0.000000
 70
0
 42
0
  0
VERTEX
  8
COPPER (ANNEALED)
 39
0
 10
4.000000
 20
-4.500000
 30
0.000000
 70
0
 42
0
  0
VERTEX
  8
COPPER (ANNEALED)
 39
0
 10
4.250000
 20
-4.500000
 30
0.000000
 70
0
 42
0
  0
VERTEX
  8
COPPER (ANNEALED)
 39
0
 10
4.250000
 20
3.500000
 30
0.000000
 70
0
 42
0
  0
VERTEX
  8
COPPER (ANNEALED)
 39
0
 10
-18.750000
 20
3.500000
 30
0.000000
 70
0
 42
0
  0
VERTEX
  8
COPPER (ANNEALED)
 39
0
 10
-18.750000
 20
4.750000
 30
0.000000
 70
0
 42
0
  0
VERTEX
  8
COPPER (ANNEALED)
 39
0
 10
18.750000
 20
4.750000
 30
0.000000
 70
0
 42
0
  0
VERTEX
  8
COPPER (ANNEALED)
 39
0
 10
18.750000
 20
-4.750000
 30
0.000000
 70
0
 42
0
  0
VERTEX
  8
COPPER (ANNEALED)
 39
0
 10
3.750000
 20
-4.750000
 30
0.000000
 70
0
 42
0
  0
VERTEX
  8
COPPER (ANNEALED)
 39
0
 10
3.750000
 20
3.000000
 30
0.000000
 70
0
 42
0
  0
VERTEX
  8
COPPER (ANNEALED)
 39
0
 10
3.500000
 20
3.000000
 30
0.000000
 70
0
 42
0
  0
VERTEX
  8
COPPER (ANNEALED)
 39
0
 10
3.500000
 20
-4.750000
 30
0.000000
 70
0
 42
0
  0
VERTEX
  8
COPPER (ANNEALED)
 39
0
 10
2.750000
 20
-4.750000
 30
0.000000
 70
0
 42
0
  0
VERTEX
  8
COPPER (ANNEALED)
 39
0
 10
2.750000
 20
3.000000
 30
0.000000
 70
0
 42
0
  0
VERTEX
  8
COPPER (ANNEALED)
 39
0
 10
2.500000
 20
3.000000
 30
0.000000
 70
0
 42
0
  0
VERTEX
  8
COPPER (ANNEALED)
 39
0
 10
2.500000
 20
-4.750000
 30
0.000000
 70
0
 42
0
  0
VERTEX
  8
COPPER (ANNEALED)
 39
0
 10
1.750000
 20
-4.750000
 30
0.000000
 70
0
 42
0
  0
VERTEX
  8
COPPER (ANNEALED)
 39
0
 10
1.750000
 20
3.000000
 30
0.000000
 70
0
 42
0
  0
VERTEX
  8
COPPER (ANNEALED)
 39
0
 10
1.500000
 20
3.000000
 30
0.000000
 70
0
 42
0
  0
VERTEX
  8
COPPER (ANNEALED)
 39
0
 10
1.500000
 20
-4.750000
 30
0.000000
 70
0
 42
0
  0
VERTEX
  8
COPPER (ANNEALED)
 39
0
 10
0.750000
 20
-4.750000
 30
0.000000
 70
0
 42
0
  0
VERTEX
  8
COPPER (ANNEALED)
 39
0
 10
0.750000
 20
3.000000
 30
0.000000
 70
0
 42
0
  0
VERTEX
  8
COPPER (ANNEALED)
 39
0
 10
0.500000
 20
3.000000
 30
0.000000
 70
0
 42
0
  0
VERTEX
  8
COPPER (ANNEALED)
 39
0
 10
0.500000
 20
-4.750000
 30
0.000000
 70
0
 42
0
  0
VERTEX
  8
COPPER (ANNEALED)
 39
0
 10
-0.250000
 20
-4.750000
 30
0.000000
 70
0
 42
0
  0
VERTEX
  8
COPPER (ANNEALED)
 39
0
 10
-0.250000
 20
3.000000
 30
0.000000
 70
0
 42
0
  0
VERTEX
  8
COPPER (ANNEALED)
 39
0
 10
-0.500000
 20
3.000000
 30
0.000000
 70
0
 42
0
  0
VERTEX
  8
COPPER (ANNEALED)
 39
0
 10
-0.500000
 20
-4.750000
 30
0.000000
 70
0
 42
0
  0
VERTEX
  8
COPPER (ANNEALED)
 39
0
 10
-1.250000
 20
-4.750000
 30
0.000000
 70
0
 42
0
  0
VERTEX
  8
COPPER (ANNEALED)
 39
0
 10
-1.250000
 20
3.000000
 30
0.000000
 70
0
 42
0
  0
VERTEX
  8
COPPER (ANNEALED)
 39
0
 10
-1.500000
 20
3.000000
 30
0.000000
 70
0
 42
0
  0
VERTEX
  8
COPPER (ANNEALED)
 39
0
 10
-1.500000
 20
-4.750000
 30
0.000000
 70
0
 42
0
  0
VERTEX
  8
COPPER (ANNEALED)
 39
0
 10
-2.250000
 20
-4.750000
 30
0.000000
 70
0
 42
0
  0
VERTEX
  8
COPPER (ANNEALED)
 39
0
 10
-2.250000
 20
3.000000
 30
0.000000
 70
0
 42
0
  0
VERTEX
  8
COPPER (ANNEALED)
 39
0
 10
-2.500000
 20
3.000000
 30
0.000000
 70
0
 42
0
  0
VERTEX
  8
COPPER (ANNEALED)
 39
0
 10
-2.500000
 20
-4.750000
 30
0.000000
 70
0
 42
0
  0
VERTEX
  8
COPPER (ANNEALED)
 39
0
 10
-3.250000
 20
-4.750000
 30
0.000000
 70
0
 42
0
  0
VERTEX
  8
COPPER (ANNEALED)
 39
0
 10
-3.250000
 20
3.000000
 30
0.000000
 70
0
 42
0
  0
VERTEX
  8
COPPER (ANNEALED)
 39
0
 10
-3.500000
 20
3.000000
 30
0.000000
 70
0
 42
0
  0
VERTEX
  8
COPPER (ANNEALED)
 39
0
 10
-3.500000
 20
-4.750000
 30
0.000000
 70
0
 42
0
  0
VERTEX
  8
COPPER (ANNEALED)
 39
0
 10
-4.250000
 20
-4.750000
 30
0.000000
 70
0
 42
0
  0
VERTEX
  8
COPPER (ANNEALED)
 39
0
 10
-4.250000
 20
3.000000
 30
0.000000
 70
0
 42
0
  0
VERTEX
  8
COPPER (ANNEALED)
 39
0
 10
-4.500000
 20
3.000000
 30
0.000000
 70
0
 42
0
  0
VERTEX
  8
COPPER (ANNEALED)
 39
0
 10
-4.500000
 20
-4.750000
 30
0.000000
 70
0
 42
0
  0
VERTEX
  8
COPPER (ANNEALED)
 39
0
 10
-5.250000
 20
-4.750000
 30
0.000000
 70
0
 42
0
  0
VERTEX
  8
COPPER (ANNEALED)
 39
0
 10
-5.250000
 20
3.000000
 30
0.000000
 70
0
 42
0
  0
VERTEX
  8
COPPER (ANNEALED)
 39
0
 10
-5.500000
 20
3.000000
 30
0.000000
 70
0
 42
0
  0
VERTEX
  8
COPPER (ANNEALED)
 39
0
 10
-5.500000
 20
-4.750000
 30
0.000000
 70
0
 42
0
  0
VERTEX
  8
COPPER (ANNEALED)
 39
0
 10
-6.250000
 20
-4.750000
 30
0.000000
 70
0
 42
0
  0
VERTEX
  8
COPPER (ANNEALED)
 39
0
 10
-6.250000
 20
3.000000
 30
0.000000
 70
0
 42
0
  0
VERTEX
  8
COPPER (ANNEALED)
 39
0
 10
-6.500000
 20
3.000000
 30
0.000000
 70
0
 42
0
  0
VERTEX
  8
COPPER (ANNEALED)
 39
0
 10
-6.500000
 20
-4.750000
 30
0.000000
 70
0
 42
0
  0
VERTEX
  8
COPPER (ANNEALED)
 39
0
 10
-7.250000
 20
-4.750000
 30
0.000000
 70
0
 42
0
  0
VERTEX
  8
COPPER (ANNEALED)
 39
0
 10
-7.250000
 20
3.000000
 30
0.000000
 70
0
 42
0
  0
VERTEX
  8
COPPER (ANNEALED)
 39
0
 10
-7.500000
 20
3.000000
 30
0.000000
 70
0
 42
0
  0
VERTEX
  8
COPPER (ANNEALED)
 39
0
 10
-7.500000
 20
-4.750000
 30
0.000000
 70
0
 42
0
  0
VERTEX
  8
COPPER (ANNEALED)
 39
0
 10
-8.250000
 20
-4.750000
 30
0.000000
 70
0
 42
0
  0
VERTEX
  8
COPPER (ANNEALED)
 39
0
 10
-8.250000
 20
3.000000
 30
0.000000
 70
0
 42
0
  0
VERTEX
  8
COPPER (ANNEALED)
 39
0
 10
-8.500000
 20
3.000000
 30
0.000000
 70
0
 42
0
  0
VERTEX
  8
COPPER (ANNEALED)
 39
0
 10
-8.500000
 20
-4.750000
 30
0.000000
 70
0
 42
0
  0
VERTEX
  8
COPPER (ANNEALED)
 39
0
 10
-9.250000
 20
-4.750000
 30
0.000000
 70
0
 42
0
  0
VERTEX
  8
COPPER (ANNEALED)
 39
0
 10
-9.250000
 20
3.000000
 30
0.000000
 70
0
 42
0
  0
VERTEX
  8
COPPER (ANNEALED)
 39
0
 10
-9.500000
 20
3.000000
 30
0.000000
 70
0
 42
0
  0
VERTEX
  8
COPPER (ANNEALED)
 39
0
 10
-9.500000
 20
-4.750000
 30
0.000000
 70
0
 42
0
  0
VERTEX
  8
COPPER (ANNEALED)
 39
0
 10
-10.250000
 20
-4.750000
 30
0.000000
 70
0
 42
0
  0
VERTEX
  8
COPPER (ANNEALED)
 39
0
 10
-10.250000
 20
3.000000
 30
0.000000
 70
0
 42
0
  0
VERTEX
  8
COPPER (ANNEALED)
 39
0
 10
-10.500000
 20
3.000000
 30
0.000000
 70
0
 42
0
  0
VERTEX
  8
COPPER (ANNEALED)
 39
0
 10
-10.500000
 20
-4.750000
 30
0.000000
 70
0
 42
0
  0
VERTEX
  8
COPPER (ANNEALED)
 39
0
 10
-11.250000
 20
-4.750000
 30
0.000000
 70
0
 42
0
  0
VERTEX
  8
COPPER (ANNEALED)
 39
0
 10
-11.250000
 20
3.000000
 30
0.000000
 70
0
 42
0
  0
VERTEX
  8
COPPER (ANNEALED)
 39
0
 10
-11.500000
 20
3.000000
 30
0.000000
 70
0
 42
0
  0
VERTEX
  8
COPPER (ANNEALED)
 39
0
 10
-11.500000
 20
-4.750000
 30
0.000000
 70
0
 42
0
  0
VERTEX
  8
COPPER (ANNEALED)
 39
0
 10
-12.250000
 20
-4.750000
 30
0.000000
 70
0
 42
0
  0
VERTEX
  8
COPPER (ANNEALED)
 39
0
 10
-12.250000
 20
3.000000
 30
0.000000
 70
0
 42
0
  0
VERTEX
  8
COPPER (ANNEALED)
 39
0
 10
-12.500000
 20
3.000000
 30
0.000000
 70
0
 42
0
  0
VERTEX
  8
COPPER (ANNEALED)
 39
0
 10
-12.500000
 20
-4.750000
 30
0.000000
 70
0
 42
0
  0
VERTEX
  8
COPPER (ANNEALED)
 39
0
 10
-13.250000
 20
-4.750000
 30
0.000000
 70
0
 42
0
  0
VERTEX
  8
COPPER (ANNEALED)
 39
0
 10
-13.250000
 20
3.000000
 30
0.000000
 70
0
 42
0
  0
VERTEX
  8
COPPER (ANNEALED)
 39
0
 10
-13.500000
 20
3.000000
 30
0.000000
 70
0
 42
0
  0
VERTEX
  8
COPPER (ANNEALED)
 39
0
 10
-13.500000
 20
-4.750000
 30
0.000000
 70
0
 42
0
  0
VERTEX
  8
COPPER (ANNEALED)
 39
0
 10
-14.250000
 20
-4.750000
 30
0.000000
 70
0
 42
0
  0
VERTEX
  8
COPPER (ANNEALED)
 39
0
 10
-14.250000
 20
3.000000
 30
0.000000
 70
0
 42
0
  0
VERTEX
  8
COPPER (ANNEALED)
 39
0
 10
-14.500000
 20
3.000000
 30
0.000000
 70
0
 42
0
  0
VERTEX
  8
COPPER (ANNEALED)
 39
0
 10
-14.500000
 20
-4.750000
 30
0.000000
 70
0
 42
0
  0
VERTEX
  8
COPPER (ANNEALED)
 39
0
 10
-15.250000
 20
-4.750000
 30
0.000000
 70
0
 42
0
  0
VERTEX
  8
COPPER (ANNEALED)
 39
0
 10
-15.250000
 20
3.000000
 30
0.000000
 70
0
 42
0
  0
VERTEX
  8
COPPER (ANNEALED)
 39
0
 10
-15.500000
 20
3.000000
 30
0.000000
 70
0
 42
0
  0
VERTEX
  8
COPPER (ANNEALED)
 39
0
 10
-15.500000
 20
-4.750000
 30
0.000000
 70
0
 42
0
  0
VERTEX
  8
COPPER (ANNEALED)
 39
0
 10
-16.250000
 20
-4.750000
 30
0.000000
 70
0
 42
0
  0
VERTEX
  8
COPPER (ANNEALED)
 39
0
 10
-16.250000
 20
3.000000
 30
0.000000
 70
0
 42
0
  0
VERTEX
  8
COPPER (ANNEALED)
 39
0
 10
-16.500000
 20
3.000000
 30
0.000000
 70
0
 42
0
  0
VERTEX
  8
COPPER (ANNEALED)
 39
0
 10
-16.500000
 20
-4.750000
 30
0.000000
 70
0
 42
0
  0
VERTEX
  8
COPPER (ANNEALED)
 39
0
 10
-17.250000
 20
-4.750000
 30
0.000000
 70
0
 42
0
  0
VERTEX
  8
COPPER (ANNEALED)
 39
0
 10
-17.250000
 20
3.000000
 30
0.000000
 70
0
 42
0
  0
VERTEX
  8
COPPER (ANNEALED)
 39
0
 10
-17.500000
 20
3.000000
 30
0.000000
 70
0
 42
0
  0
VERTEX
  8
COPPER (ANNEALED)
 39
0
 10
-17.500000
 20
-4.750000
 30
0.000000
 70
0
 42
0
  0
VERTEX
  8
COPPER (ANNEALED)
 39
0
 10
-18.250000
 20
-4.750000
 30
0.000000
 70
0
 42
0
  0
VERTEX
  8
COPPER (ANNEALED)
 39
0
 10
-18.250000
 20
3.000000
 30
0.000000
 70
0
 42
0
  0
SEQEND
  8
COPPER (ANNEALED)
  0
ENDSEC
  0
EOF
