  0
SECTION
  2
HEADER
  9
$ACADVER
  1
AC1009
  0
ENDSEC
  0
SECTION
  2
ENTITIES
  0
POLYLINE
  8
FR-4 (LOSSY)
 66
1
 39
0
 10
0.000000
 20
0.000000
 30
0.000000
 70
1
  0
VERTEX
  8
FR-4 (LOSSY)
 39
0
 10
-20.000000
 20
-6.000000
 30
0.000000
 70
0
 42
0
  0
VERTEX
  8
FR-4 (LOSSY)
 39
0
 10
20.000000
 20
-6.000000
 30
0.000000
 70
0
 42
0
  0
VERTEX
  8
FR-4 (LOSSY)
 39
0
 10
20.000000
 20
6.000000
 30
0.000000
 70
0
 42
0
  0
VERTEX
  8
FR-4 (LOSSY)
 39
0
 10
-20.000000
 20
6.000000
 30
0.000000
 70
0
 42
0
  0
SEQEND
  8
FR-4 (LOSSY)
  0
POLYLINE
  8
COPPER (ANNEALED)
 66
1
 39
0
 10
0.000000
 20
0.000000
 30
0.000000
 70
1
  0
VERTEX
  8
COPPER (ANNEALED)
 39
0
 10
-13.500000
 20
4.500000
 30
0.000000
 70
0
 42
0
  0
VERTEX
  8
COPPER (ANNEALED)
 39
0
 10
-13.500000
 20
-4.000000
 30
0.000000
 70
0
 42
0
  0
VERTEX
  8
COPPER (ANNEALED)
 39
0
 10
-12.500000
 20
-4.000000
 30
0.000000
 70
0
 42
0
  0
VERTEX
  8
COPPER (ANNEALED)
 39
0
 10
-12.500000
 20
4.500000
 30
0.000000
 70
0
 42
0
  0
VERTEX
  8
COPPER (ANNEALED)
 39
0
 10
-10.500000
 20
4.500000
 30
0.000000
 70
0
 42
0
  0
VERTEX
  8
COPPER (ANNEALED)
 39
0
 10
-10.500000
 20
-4.000000
 30
0.000000
 70
0
 42
0
  0
VERTEX
  8
COPPER (ANNEALED)
 39
0
 10
-9.500000
 20
-4.000000
 30
0.000000
 70
0
 42
0
  0
VERTEX
  8
COPPER (ANNEALED)
 39
0
 10
-9.500000
 20
4.500000
 30
0.000000
 70
0
 42
0
  0
VERTEX
  8
COPPER (ANNEALED)
 39
0
 10
-7.500000
 20
4.500000
 30
0.000000
 70
0
 42
0
  0
VERTEX
  8
COPPER (ANNEALED)
 39
0
 10
-7.500000
 20
-4.000000
 30
0.000000
 70
0
 42
0
  0
VERTEX
  8
COPPER (ANNEALED)
 39
0
 10
-6.500000
 20
-4.000000
 30
0.000000
 70
0
 42
0
  0
VERTEX
  8
COPPER (ANNEALED)
 39
0
 10
-6.500000
 20
4.500000
 30
0.000000
 70
0
 42
0
  0
VERTEX
  8
COPPER (ANNEALED)
 39
0
 10
-4.500000
 20
4.500000
 30
0.000000
 70
0
 42
0
  0
VERTEX
  8
COPPER (ANNEALED)
 39
0
 10
-4.500000
 20
-4.000000
 30
0.000000
 70
0
 42
0
  0
VERTEX
  8
COPPER (ANNEALED)
 39
0
 10
-3.500000
 20
-4.000000
 30
0.000000
 70
0
 42
0
  0
VERTEX
  8
COPPER (ANNEALED)
 39
0
 10
-3.500000
 20
4.500000
 30
0.000000
 70
0
 42
0
  0
VERTEX
  8
COPPER (ANNEALED)
 39
0
 10
-1.500000
 20
4.500000
 30
0.000000
 70
0
 42
0
  0
VERTEX
  8
COPPER (ANNEALED)
 39
0
 10
-1.500000
 20
-4.000000
 30
0.000000
 70
0
 42
0
  0
VERTEX
  8
COPPER (ANNEALED)
 39
0
 10
-0.500000
 20
-4.000000
 30
0.000000
 70
0
 42
0
  0
VERTEX
  8
COPPER (ANNEALED)
 39
0
 10
-0.500000
 20
4.500000
 30
0.000000
 70
0
 42
0
  0
VERTEX
  8
COPPER (ANNEALED)
 39
0
 10
1.500000
 20
4.500000
 30
0.000000
 70
0
 42
0
  0
VERTEX
  8
COPPER (ANNEALED)
 39
0
 10
1.500000
 20
-4.000000
 30
0.000000
 70
0
 42
0
  0
VERTEX
  8
COPPER (ANNEALED)
 39
0
 10
2.500000
 20
-4.000000
 30
0.000000
 70
0
 42
0
  0
VERTEX
  8
COPPER (ANNEALED)
 39
0
 10
2.500000
 20
4.500000
 30
0.000000
 70
0
 42
0
  0
VERTEX
  8
COPPER (ANNEALED)
 39
0
 10
18.500000
 20
4.500000
 30
0.000000
 70
0
 42
0
  0
VERTEX
  8
COPPER (ANNEALED)
 39
0
 10
18.500000
 20
-4.500000
 30
0.000000
 70
0
 42
0
  0
VERTEX
  8
COPPER (ANNEALED)
 39
0
 10
1.000000
 20
-4.500000
 30
0.000000
 70
0
 42
0
  0
VERTEX
  8
COPPER (ANNEALED)
 39
0
 10
1.000000
 20
4.000000
 30
0.000000
 70
0
 42
0
  0
VERTEX
  8
COPPER (ANNEALED)
 39
0
 10
0.000000
 20
4.000000
 30
0.000000
 70
0
 42
0
  0
VERTEX
  8
COPPER (ANNEALED)
 39
0
 10
0.000000
 20
-4.500000
 30
0.000000
 70
0
 42
0
  0
VERTEX
  8
COPPER (ANNEALED)
 39
0
 10
-2.000000
 20
-4.500000
 30
0.000000
 70
0
 42
0
  0
VERTEX
  8
COPPER (ANNEALED)
 39
0
 10
-2.000000
 20
4.000000
 30
0.000000
 70
0
 42
0
  0
VERTEX
  8
COPPER (ANNEALED)
 39
0
 10
-3.000000
 20
4.000000
 30
0.000000
 70
0
 42
0
  0
VERTEX
  8
COPPER (ANNEALED)
 39
0
 10
-3.000000
 20
-4.500000
 30
0.000000
 70
0
 42
0
  0
VERTEX
  8
COPPER (ANNEALED)
 39
0
 10
-5.000000
 20
-4.500000
 30
0.000000
 70
0
 42
0
  0
VERTEX
  8
COPPER (ANNEALED)
 39
0
 10
-5.000000
 20
4.000000
 30
0.000000
 70
0
 42
0
  0
VERTEX
  8
COPPER (ANNEALED)
 39
0
 10
-6.000000
 20
4.000000
 30
0.000000
 70
0
 42
0
  0
VERTEX
  8
COPPER (ANNEALED)
 39
0
 10
-6.000000
 20
-4.500000
 30
0.000000
 70
0
 42
0
  0
VERTEX
  8
COPPER (ANNEALED)
 39
0
 10
-8.000000
 20
-4.500000
 30
0.000000
 70
0
 42
0
  0
VERTEX
  8
COPPER (ANNEALED)
 39
0
 10
-8.000000
 20
4.000000
 30
0.000000
 70
0
 42
0
  0
VERTEX
  8
COPPER (ANNEALED)
 39
0
 10
-9.000000
 20
4.000000
 30
0.000000
 70
0
 42
0
  0
VERTEX
  8
COPPER (ANNEALED)
 39
0
 10
-9.000000
 20
-4.500000
 30
0.000000
 70
0
 42
0
  0
VERTEX
  8
COPPER (ANNEALED)
 39
0
 10
-11.000000
 20
-4.500000
 30
0.000000
 70
0
 42
0
  0
VERTEX
  8
COPPER (ANNEALED)
 39
0
 10
-11.000000
 20
4.000000
 30
0.000000
 70
0
 42
0
  0
VERTEX
  8
COPPER (ANNEALED)
 39
0
 10
-12.000000
 20
4.000000
 30
0.000000
 70
0
 42
0
  0
VERTEX
  8
COPPER (ANNEALED)
 39
0
 10
-12.000000
 20
-4.500000
 30
0.000000
 70
0
 42
0
  0
VERTEX
  8
COPPER (ANNEALED)
 39
0
 10
-14.000000
 20
-4.500000
 30
0.000000
 70
0
 42
0
  0
VERTEX
  8
COPPER (ANNEALED)
 39
0
 10
-14.000000
 20
4.000000
 30
0.000000
 70
0
 42
0
  0
VERTEX
  8
COPPER (ANNEALED)
 39
0
 10
-15.000000
 20
4.000000
 30
0.000000
 70
0
 42
0
  0
VERTEX
  8
COPPER (ANNEALED)
 39
0
 10
-15.000000
 20
-4.500000
 30
0.000000
 70
0
 42
0
  0
VERTEX
  8
COPPER (ANNEALED)
 39
0
 10
-17.000000
 20
-4.500000
 30
0.000000
 70
0
 42
0
  0
VERTEX
  8
COPPER (ANNEALED)
 39
0
 10
-17.000000
 20
4.000000
 30
0.000000
 70
0
 42
0
  0
VERTEX
  8
COPPER (ANNEALED)
 39
0
 10
-18.000000
 20
4.000000
 30
0.000000
 70
0
 42
0
  0
VERTEX
  8
COPPER (ANNEALED)
 39
0
 10
-18.000000
 20
-5.500000
 30
0.000000
 70
0
 42
0
  0
VERTEX
  8
COPPER (ANNEALED)
 39
0
 10
19.500000
 20
-5.500000
 30
0.000000
 70
0
 42
0
  0
VERTEX
  8
COPPER (ANNEALED)
 39
0
 10
19.500000
 20
5.500000
 30
0.000000
 70
0
 42
0
  0
VERTEX
  8
COPPER (ANNEALED)
 39
0
 10
-19.500000
 20
5.500000
 30
0.000000
 70
0
 42
0
  0
VERTEX
  8
COPPER (ANNEALED)
 39
0
 10
-19.500000
 20
-5.500000
 30
0.000000
 70
0
 42
0
  0
VERTEX
  8
COPPER (ANNEALED)
 39
0
 10
-18.500000
 20
-5.500000
 30
0.000000
 70
0
 42
0
  0
VERTEX
  8
COPPER (ANNEALED)
 39
0
 10
-18.500000
 20
4.500000
 30
0.000000
 70
0
 42
0
  0
VERTEX
  8
COPPER (ANNEALED)
 39
0
 10
-16.500000
 20
4.500000
 30
0.000000
 70
0
 42
0
  0
VERTEX
  8
COPPER (ANNEALED)
 39
0
 10
-16.500000
 20
-4.000000
 30
0.000000
 70
0
 42
0
  0
VERTEX
  8
COPPER (ANNEALED)
 39
0
 10
-15.500000
 20
-4.000000
 30
0.000000
 70
0
 42
0
  0
VERTEX
  8
COPPER (ANNEALED)
 39
0
 10
-15.500000
 20
4.500000
 30
0.000000
 70
0
 42
0
  0
SEQEND
  8
COPPER (ANNEALED)
  0
ENDSEC
  0
EOF
